<?xml version="1.0" encoding="UTF-8"?><svg id="Layer_2" xmlns="http://www.w3.org/2000/svg" viewBox="0 0 521.1 101.2"><defs><style>.cls-1{fill:#fbba1e;stroke:#fbba1e;}.cls-1,.cls-2{stroke-miterlimit:10;}.cls-2{fill:#fff;stroke:#fff;stroke-width:1.5px;}</style></defs><g id="_레이어_1"><path class="cls-2" d="M300.4,78.3V22.9h8.4v47.7h26.5v7.7h-34.9Z"/><path class="cls-2" d="M441.6,22.9v26.1l24-26.1h10.7l-20.2,21.9,21.8,33.5h-10.1l-17.4-27.1-8.7,9.4v17.6h-8.4V22.9h8.4Z"/><path class="cls-2" d="M499.4,35.2v-12.3h8.4v12.3h12.6v7.2h-12.6v21.5c0,2.5.6,4.4,1.7,5.5s2.9,1.7,5.2,1.7h5.6v7.2h-6.6c-4.8,0-8.4-1.2-10.8-3.5-2.4-2.4-3.6-6-3.6-10.8v-21.6h-8.6v-7.2h8.6Z"/><path class="cls-2" d="M136.9,76.3c-3.1-1.3-5.7-3.2-7.9-5.6-2.2-2.4-3.8-5.3-4.9-8.8-1.1-3.4-1.7-7.2-1.7-11.4s.6-8.1,1.7-11.6c1.1-3.4,2.8-6.3,4.9-8.7,2.2-2.4,4.8-4.2,7.9-5.5,3.1-1.3,6.7-1.9,10.6-1.9s7.7.7,10.8,2c3.1,1.3,5.8,3.2,7.9,5.6,2.1,2.4,3.7,5.3,4.8,8.7,1.1,3.4,1.6,7.2,1.6,11.4s-.6,7.9-1.7,11.4c-1.1,3.4-2.8,6.3-4.9,8.8-2.2,2.4-4.8,4.3-7.9,5.6s-6.6,2-10.6,2-7.5-.7-10.6-2ZM132.1,59.4c.8,2.5,1.9,4.7,3.4,6.3,1.5,1.7,3.2,2.9,5.3,3.8,2,.8,4.3,1.3,6.7,1.3s4.7-.4,6.7-1.3c2-.8,3.8-2.1,5.2-3.8,1.5-1.7,2.6-3.8,3.4-6.3.8-2.5,1.2-5.5,1.2-8.9s-.4-6.3-1.2-8.9c-.8-2.5-2-4.6-3.4-6.3-1.5-1.7-3.2-2.9-5.2-3.8-2-.8-4.3-1.3-6.7-1.3s-4.7.4-6.7,1.3c-2,.8-3.8,2.1-5.2,3.8-1.5,1.7-2.6,3.8-3.4,6.3-.8,2.5-1.2,5.5-1.2,8.9s.4,6.3,1.2,8.9Z"/><path class="cls-2" d="M181.1,35.2l12.1,32.6,12.2-32.6h8.6l-17,43.1h-7.7l-17.1-43.1h8.9Z"/><path class="cls-2" d="M223.9,76.7c-2.5-1.1-4.7-2.5-6.5-4.4-1.8-1.9-3.2-4.2-4.1-6.8-1-2.7-1.4-5.6-1.4-8.9s.5-6,1.5-8.6c1-2.6,2.4-4.9,4.1-6.7,1.8-1.9,3.9-3.4,6.3-4.4,2.4-1.1,5.1-1.6,8-1.6s5.9.5,8.4,1.6,4.6,2.6,6.3,4.4c1.7,1.9,3.1,4.1,4,6.6.9,2.6,1.4,5.3,1.4,8.3v2.4h-31.1c0,1.9.3,3.6.8,5.2.5,1.6,1.3,2.9,2.2,4,1,1.1,2.2,2,3.6,2.6,1.4.6,3.1.9,5.1.9s4.4-.4,6-1.3c1.6-.9,2.9-2.2,3.8-3.9h9.2c-1.7,3.9-4.1,6.9-7.3,9-3.2,2.1-7.1,3.2-11.7,3.2s-6-.5-8.5-1.6ZM242.5,52.6c-.1-1.5-.4-2.9-.9-4.1-.5-1.3-1.2-2.4-2.1-3.3-.9-.9-2-1.7-3.3-2.2-1.3-.5-2.8-.8-4.5-.8s-3,.3-4.2.8c-1.2.5-2.3,1.2-3.2,2.2-.9.9-1.6,2-2.2,3.3-.6,1.3-.9,2.7-1.1,4.2h21.5Z"/><path class="cls-2" d="M357.4,35.2l12.1,32.6,12.2-32.6h8.6l-17,43.1h-7.7l-17.1-43.1h8.9Z"/><path class="cls-2" d="M400.3,76.7c-2.5-1.1-4.7-2.5-6.5-4.4-1.8-1.9-3.2-4.2-4.1-6.8s-1.4-5.6-1.4-8.9.5-6,1.5-8.6c1-2.6,2.4-4.9,4.1-6.7,1.8-1.9,3.9-3.4,6.3-4.4,2.4-1.1,5.1-1.6,8-1.6s5.9.5,8.4,1.6,4.6,2.6,6.3,4.4c1.7,1.9,3.1,4.1,4,6.6.9,2.6,1.4,5.3,1.4,8.3v2.4h-31.1c0,1.9.3,3.6.8,5.2.5,1.6,1.3,2.9,2.2,4,1,1.1,2.2,2,3.6,2.6,1.4.6,3.1.9,5.1.9s4.4-.4,6-1.3c1.6-.9,2.9-2.2,3.8-3.9h9.2c-1.7,3.9-4.1,6.9-7.3,9-3.2,2.1-7.1,3.2-11.7,3.2s-6-.5-8.5-1.6ZM418.9,52.6c-.1-1.5-.4-2.9-.9-4.1-.5-1.3-1.2-2.4-2.1-3.3-.9-.9-2-1.7-3.3-2.2-1.3-.5-2.8-.8-4.5-.8s-3,.3-4.2.8c-1.2.5-2.3,1.2-3.2,2.2-.9.9-1.6,2-2.2,3.3-.6,1.3-.9,2.7-1.1,4.2h21.5Z"/><path class="cls-2" d="M256.3,35.9h8.5v6.8c.6-1.3,1.4-2.3,2.4-3.3.9-.9,1.9-1.7,3.1-2.3,1.1-.6,2.3-1.1,3.6-1.4,1.3-.3,2.6-.5,4-.5,2.4,0,4.6.4,6.6,1.1,1.9.8,3.6,1.9,5,3.5,1.4,1.6,2.4,3.6,3.2,6,.7,2.4,1.1,5.3,1.1,8.7v23.8h-8.4v-23.6c0-2.2-.2-4-.5-5.5-.3-1.5-.9-2.8-1.6-3.7-.7-1-1.7-1.7-2.8-2.1-1.1-.4-2.5-.7-4.2-.7-3.6,0-6.4,1.2-8.3,3.5-1.9,2.3-2.9,5.8-2.9,10.5v21.6h-8.5v-42.4Z"/><path class="cls-2" d="M479.6,78.3v-43.1h8.4v43.1h-8.4Z"/><rect class="cls-2" x="479.6" y="22.9" width="8.4" height="7.8"/><path class="cls-2" d="M337.8,78.3v-43.1h8.4v43.1h-8.4Z"/><rect class="cls-2" x="337.8" y="22.9" width="8.4" height="7.8"/><path class="cls-1" d="M66.8,5.5c18.5,5.8,32.3,23.1,33.5,42.3,2.6,34.4-31.5,60.6-64.7,49.8C2.2,86.8-9.3,45.6,13.8,19.3,26.5,4.4,48.5-1.6,67.1,4.6c0,0-.3.9-.3.9h0ZM66.5,6.4C48.6.3,27.3,6,15,20.3-7.7,45.9,3.4,86,35.9,96.7c32.7,10.8,66.4-14.9,64-48.9-1.1-19-14.7-36.4-33.1-42.3,0,0-.3.9-.3.9h0Z"/><path class="cls-1" d="M81.8,13.5c15,11.3,22,31.5,17.5,49.6-5.9,25.4-32.3,41.7-58,36.7C22.1,96.4,6.1,81.2,1.9,62.5-4.5,36.8,11.7,9.4,37.8,2.5,44.1.7,50.8.1,57.3.8c6.5.6,13,2.5,18.8,5.5,1.4.7,2,2.5,1.2,3.9-.8,1.4-2.6,2-4,1.2C38.2-7.3-2.9,23.2,5.5,61.7c4.9,24.3,29.7,40.3,54.3,35.9,41.1-7.2,53.9-58.2,22-84.1h0Z"/><path class="cls-1" d="M85.7,69.9c-7.3,13.6-23.1,21.9-38.6,20.2-27.9-2.7-44-32.9-30.6-57.2,13.4-24.5,48.2-27.7,65.9-6.2,10.1,12,11.8,30,4.1,43.7,0,0-.9-.5-.9-.5h0ZM84.8,69.5c7.4-13,5.9-30.2-3.7-41.7-17.1-21-50.7-18-63.8,5.6-13.3,23.8,2.4,53.5,29.8,56.4,15.4,1.8,31.2-6.3,38.5-19.8,0,0-.9-.5-.9-.5h0Z"/><path class="cls-1" d="M26.9,81.7c-19.7-14.7-20.4-44.6-1.5-60.4,8.2-7.1,19.5-10.8,30.3-9.7,21.6,1.8,37.9,20.6,37.2,41.8-.3,8.6-3.3,17.1-8.8,23.9-2.5,3-6.9-.4-4.6-3.5,4.5-5.4,7.5-12.2,8.2-19.3,2.1-19.4-12.7-37.5-32.3-39.7-6.4-.8-13.1.1-19,2.6C9.5,28.3,4.5,63.6,26.9,81.7h0Z"/><path class="cls-1" d="M34.2,27.9c21.3-15.1,50.5,2.9,46.5,28.4-4.3,25.8-38.2,33.6-53.8,12.4-9.8-12.8-6.6-32.4,6.8-41.6,0,0,.6.8.6.8h0ZM34.7,28.7c-20.7,14.5-13.1,46.4,11.9,50.7,25.4,4.2,43.2-23.9,28.3-44.6-8.9-12.8-28.1-16.1-40.8-6.9,0,0,.6.8.6.8h0Z"/><path class="cls-1" d="M72.6,71.5c-16.6,17.9-46.2,9.6-51.9-13.8-3.5-13.4,3.6-28.3,16-34.6,3.6-1.7,6.2,3.4,2.6,5.2-15.2,6.8-20.2,26.2-10.5,39.6,10,14.4,31.3,16,43.7,3.6h0Z"/></g></svg>