<?xml version="1.0" encoding="UTF-8"?>
<svg id="Layer_2" data-name="Layer 2" xmlns="http://www.w3.org/2000/svg" viewBox="0 0 1375.88 280">
  <defs>
    <style>
      .cls-1 {
        fill: #14274e;
      }

      .cls-2 {
        fill: #394867;
      }

      .cls-3 {
        fill: #9ba4b4;
      }
    </style>
  </defs>
  <g id="Layer_1-2" data-name="Layer 1">
    <g>
      <g>
        <g>
          <polygon class="cls-2" points="127.87 212.86 113.59 221.26 186.69 263.88 186.69 247.5 127.87 212.86"/>
          <polygon class="cls-2" points="13.57 170.44 13.57 247.7 27.52 239.5 27.52 178.63 13.57 170.44"/>
          <path class="cls-2" d="M193.29,157.59V54.76L100.02,0h0v196.45l13.57-7.97v-61.31l166.41,97.85v-16.38l-86.71-51.05ZM179.73,149.59l-66.14-38.83V24.35l66.14,38.83v86.41Z"/>
        </g>
        <g>
          <polygon class="cls-1" points="13.57 170.44 27.52 178.63 86.45 143.53 86.45 127.17 13.57 170.44"/>
          <polygon class="cls-1" points="113.59 24.35 113.59 40.76 166.16 71.64 179.73 63.18 113.59 24.35"/>
          <path class="cls-1" d="M113.59,127.17v16.41l52.57,30.82L0,272.06l13.54,7.94,86.84-51.02,86.31,50.82,93.31-54.78L113.59,127.17ZM113.59,221.26l66.14-38.9,72.79,42.88-65.82,38.64-73.11-42.62Z"/>
        </g>
        <g>
          <polygon class="cls-3" points="166.16 71.64 166.16 141.63 179.73 149.59 179.73 63.18 166.16 71.64"/>
          <path class="cls-3" d="M151.86,166.01l-51.84,30.44V0h0c-8.44,5.24-13.57,14.46-13.57,24.39v86.37L.23,162.02c0,29.92,0,79.92-.23,110.03l166.16-97.66-14.3-8.38ZM86.45,204.41L13.57,247.7c0-12.52,0-65.42,0-77.26l72.88-43.27v77.24Z"/>
          <polygon class="cls-3" points="238.56 217.05 186.69 247.5 186.69 263.88 252.51 225.24 238.56 217.05"/>
        </g>
      </g>
      <g>
        <path class="cls-3" d="M794.32,225.79V76.97h22.34v128.88h70.9v19.94h-93.24Z"/>
        <path class="cls-3" d="M1058.71,220.78c-6.77-2.81-12.55-6.76-17.35-11.83-4.8-5.08-8.49-11.18-11.06-18.3s-3.87-15.03-3.87-23.72,1.32-15.98,3.97-22.96c2.65-6.98,6.34-12.98,11.06-18.02s10.33-8.99,16.81-11.83c6.48-2.85,13.59-4.27,21.32-4.27,8.31,0,15.75,1.44,22.34,4.33,6.59,2.89,12.21,6.83,16.87,11.83,4.65,5,8.2,10.92,10.63,17.75,2.43,6.83,3.65,14.23,3.65,22.19v6.46h-83.14c.14,5.11.89,9.75,2.26,13.92,1.36,4.16,3.35,7.74,5.96,10.74,2.61,3,5.85,5.3,9.72,6.9,3.87,1.61,8.38,2.41,13.54,2.41,6.37,0,11.71-1.17,16.01-3.51,4.3-2.34,7.66-5.81,10.1-10.41h24.6c-4.51,10.37-11.03,18.39-19.55,24.05-8.52,5.66-18.91,8.49-31.15,8.49-8.38,0-15.95-1.41-22.72-4.22ZM1108.5,156.52c-.29-3.95-1.13-7.62-2.52-11.01-1.4-3.4-3.29-6.35-5.69-8.88-2.4-2.52-5.32-4.51-8.75-5.97-3.44-1.46-7.41-2.19-11.92-2.19-4.15,0-7.9.7-11.23,2.08-3.33,1.39-6.2,3.31-8.59,5.75-2.4,2.45-4.35,5.41-5.85,8.88-1.5,3.47-2.47,7.25-2.9,11.34h57.47Z"/>
        <path class="cls-3" d="M1168.13,76.97v67.93l64.13-67.93h28.57l-54.03,57.09,54.21,91.12h-27.07l-42.61-74.47-23.2,24.54v49.75h-22.45V76.97h22.45Z"/>
        <path class="cls-3" d="M1319.91,109.84v-32.87h22.34v32.87h33.62v19.17h-33.62v57.42c0,6.79,1.54,11.72,4.62,14.79,3.08,3.07,7.73,4.6,13.96,4.6h15.04v19.17h-17.51c-12.89,0-22.52-3.16-28.9-9.48-6.38-6.32-9.56-15.91-9.56-28.76v-57.74h-23.1v-19.17h23.1Z"/>
        <path class="cls-3" d="M360.89,219.69c-8.31-3.54-15.34-8.55-21.11-15.01-5.77-6.46-10.17-14.26-13.21-23.39-3.04-9.13-4.57-19.25-4.57-30.35s1.52-21.77,4.57-30.9c3.04-9.13,7.45-16.89,13.21-23.28,5.76-6.39,12.82-11.29,21.16-14.68,8.34-3.4,17.78-5.1,28.31-5.1s20.52,1.77,28.9,5.31c8.38,3.54,15.4,8.53,21.05,14.96,5.66,6.43,9.95,14.19,12.89,23.28,2.94,9.09,4.4,19.23,4.4,30.41s-1.52,21.22-4.57,30.35c-3.04,9.13-7.45,16.93-13.21,23.39-5.77,6.46-12.8,11.47-21.11,15.01-8.31,3.54-17.76,5.31-28.36,5.31s-20.05-1.77-28.36-5.31ZM348.1,174.6c2.15,6.79,5.17,12.44,9.08,16.93,3.9,4.49,8.59,7.85,14.07,10.08,5.48,2.23,11.48,3.34,17.99,3.34s12.58-1.11,17.99-3.34c5.41-2.23,10.08-5.59,14.02-10.08,3.94-4.49,6.98-10.13,9.13-16.93,2.15-6.79,3.22-14.68,3.22-23.67s-1.09-16.96-3.28-23.72c-2.19-6.76-5.25-12.38-9.18-16.87-3.94-4.49-8.61-7.85-14.02-10.08-5.41-2.23-11.37-3.34-17.89-3.34s-12.48,1.11-17.89,3.34c-5.41,2.23-10.08,5.59-14.02,10.08-3.94,4.49-7,10.12-9.18,16.87-2.19,6.76-3.28,14.67-3.28,23.72s1.07,16.87,3.22,23.67Z"/>
        <path class="cls-3" d="M479.12,109.84l32.33,87,32.55-87h23.1l-45.55,115.16h-20.52l-45.65-115.16h23.74Z"/>
        <path class="cls-3" d="M591.77,220.78c-6.77-2.81-12.55-6.76-17.35-11.83-4.8-5.08-8.49-11.18-11.06-18.3s-3.87-15.03-3.87-23.72,1.32-15.98,3.97-22.96c2.65-6.98,6.34-12.98,11.06-18.02s10.33-8.99,16.81-11.83c6.48-2.85,13.59-4.27,21.32-4.27,8.31,0,15.75,1.44,22.34,4.33,6.59,2.89,12.21,6.83,16.87,11.83,4.65,5,8.2,10.92,10.63,17.75,2.43,6.83,3.65,14.23,3.65,22.19v6.46h-83.14c.14,5.11.89,9.75,2.26,13.92,1.36,4.16,3.35,7.74,5.96,10.74,2.61,3,5.85,5.3,9.72,6.9,3.87,1.61,8.38,2.41,13.54,2.41,6.37,0,11.71-1.17,16.01-3.51,4.3-2.34,7.66-5.81,10.1-10.41h24.6c-4.51,10.37-11.03,18.39-19.55,24.05-8.52,5.66-18.91,8.49-31.15,8.49-8.38,0-15.95-1.41-22.72-4.22ZM641.56,156.52c-.29-3.95-1.13-7.62-2.52-11.01-1.4-3.4-3.29-6.35-5.69-8.88-2.4-2.52-5.32-4.51-8.75-5.97-3.44-1.46-7.41-2.19-11.92-2.19-4.15,0-7.9.7-11.23,2.08-3.33,1.39-6.2,3.31-8.59,5.75-2.4,2.45-4.35,5.41-5.85,8.88-1.5,3.47-2.47,7.25-2.9,11.34h57.47Z"/>
        <path class="cls-3" d="M677.52,109.88h22.77v19.9c1.72-3.36,3.81-6.26,6.28-8.71,2.47-2.45,5.19-4.51,8.16-6.19,2.97-1.68,6.16-2.94,9.56-3.78,3.4-.84,6.93-1.26,10.58-1.26,6.52,0,12.37,1,17.56,3.01,5.19,2.01,9.63,5.11,13.32,9.31,3.69,4.2,6.5,9.53,8.43,16,1.93,6.46,2.9,14.19,2.9,23.17v63.66h-22.56v-63c0-5.77-.47-10.68-1.4-14.74-.93-4.05-2.38-7.38-4.35-9.97-1.97-2.59-4.48-4.47-7.52-5.64-3.04-1.17-6.75-1.75-11.12-1.75-9.67,0-17.06,3.11-22.18,9.31-5.12,6.21-7.68,15.56-7.68,28.05v57.75h-22.77v-115.12Z"/>
        <g>
          <path class="cls-3" d="M1267.63,225v-115.16h22.56v115.16h-22.56Z"/>
          <rect class="cls-3" x="1267.63" y="76.97" width="22.56" height="20.82"/>
        </g>
        <g>
          <path class="cls-3" d="M893.52,225v-115.16h22.56v115.16h-22.56Z"/>
          <rect class="cls-3" x="893.52" y="76.97" width="22.56" height="20.82"/>
        </g>
        <path class="cls-3" d="M945.07,109.84l32.33,87,32.55-87h23.1l-45.55,115.16h-20.52l-45.65-115.16h23.74Z"/>
      </g>
    </g>
  </g>
</svg>