<?xml version="1.0" encoding="UTF-8"?><svg id="Layer_2" xmlns="http://www.w3.org/2000/svg" viewBox="0 0 724.7 100.2"><defs><style>.cls-1{fill:#fff;}.cls-2{fill:#fbba1e;}</style></defs><g id="_레이어_1"><path class="cls-1" d="M136.4,75.8c-3.1-1.3-5.7-3.2-7.9-5.6-2.2-2.4-3.8-5.3-4.9-8.8-1.1-3.4-1.7-7.2-1.7-11.4s.6-8.1,1.7-11.6c1.1-3.4,2.8-6.3,4.9-8.7,2.2-2.4,4.8-4.2,7.9-5.5,3.1-1.3,6.7-1.9,10.6-1.9s7.7.7,10.8,2c3.1,1.3,5.8,3.2,7.9,5.6,2.1,2.4,3.7,5.3,4.8,8.7,1.1,3.4,1.6,7.2,1.6,11.4s-.6,7.9-1.7,11.4c-1.1,3.4-2.8,6.3-4.9,8.8-2.2,2.4-4.8,4.3-7.9,5.6s-6.6,2-10.6,2-7.5-.7-10.6-2ZM131.6,58.9c.8,2.5,1.9,4.7,3.4,6.3,1.5,1.7,3.2,2.9,5.3,3.8,2,.8,4.3,1.3,6.7,1.3s4.7-.4,6.7-1.3c2-.8,3.8-2.1,5.2-3.8,1.5-1.7,2.6-3.8,3.4-6.3.8-2.5,1.2-5.5,1.2-8.9s-.4-6.3-1.2-8.9c-.8-2.5-2-4.6-3.4-6.3-1.5-1.7-3.2-2.9-5.2-3.8-2-.8-4.3-1.3-6.7-1.3s-4.7.4-6.7,1.3c-2,.8-3.8,2.1-5.2,3.8s-2.6,3.8-3.4,6.3c-.8,2.5-1.2,5.5-1.2,8.9s.4,6.3,1.2,8.9Z"/><path class="cls-1" d="M180.6,34.7l12.1,32.6,12.2-32.6h8.6l-17,43.1h-7.7l-17.1-43.1h8.9Z"/><path class="cls-1" d="M223.4,76.2c-2.5-1.1-4.7-2.5-6.5-4.4-1.8-1.9-3.2-4.2-4.1-6.8s-1.4-5.6-1.4-8.9.5-6,1.5-8.6c1-2.6,2.4-4.9,4.1-6.7,1.8-1.9,3.9-3.4,6.3-4.4,2.4-1.1,5.1-1.6,8-1.6s5.9.5,8.4,1.6c2.5,1.1,4.6,2.6,6.3,4.4,1.7,1.9,3.1,4.1,4,6.6.9,2.6,1.4,5.3,1.4,8.3v2.4h-31.1c0,1.9.3,3.6.8,5.2.5,1.6,1.3,2.9,2.2,4,1,1.1,2.2,2,3.6,2.6,1.4.6,3.1.9,5.1.9s4.4-.4,6-1.3c1.6-.9,2.9-2.2,3.8-3.9h9.2c-1.7,3.9-4.1,6.9-7.3,9-3.2,2.1-7.1,3.2-11.7,3.2s-6-.5-8.5-1.6ZM242,52.1c-.1-1.5-.4-2.9-.9-4.1-.5-1.3-1.2-2.4-2.1-3.3-.9-.9-2-1.7-3.3-2.2-1.3-.5-2.8-.8-4.5-.8s-3,.3-4.2.8c-1.2.5-2.3,1.2-3.2,2.2-.9.9-1.6,2-2.2,3.3-.6,1.3-.9,2.7-1.1,4.2h21.5Z"/><path class="cls-1" d="M255.8,35.4h8.5v6.8c.6-1.3,1.4-2.3,2.4-3.3.9-.9,1.9-1.7,3.1-2.3,1.1-.6,2.3-1.1,3.6-1.4,1.3-.3,2.6-.5,4-.5,2.4,0,4.6.4,6.6,1.1,1.9.8,3.6,1.9,5,3.5,1.4,1.6,2.4,3.6,3.2,6,.7,2.4,1.1,5.3,1.1,8.7v23.8h-8.4v-23.6c0-2.2-.2-4-.5-5.5-.3-1.5-.9-2.8-1.6-3.7-.7-1-1.7-1.7-2.8-2.1-1.1-.4-2.5-.7-4.2-.7-3.6,0-6.4,1.2-8.3,3.5-1.9,2.3-2.9,5.8-2.9,10.5v21.6h-8.5v-42.4Z"/><path class="cls-1" d="M299.9,77.8V22.4h8l15.3,19.4,15.4-19.4h8v55.4h-8.4v-42.3l-15,19-14.9-19v42.3h-8.4Z"/><path class="cls-1" d="M363.6,76.2c-2.5-1.1-4.7-2.5-6.5-4.4-1.8-1.9-3.2-4.2-4.1-6.8-1-2.7-1.4-5.6-1.4-8.9s.5-6,1.5-8.6c1-2.6,2.4-4.9,4.1-6.7,1.8-1.9,3.9-3.4,6.3-4.4,2.4-1.1,5.1-1.6,8-1.6s5.9.5,8.4,1.6,4.6,2.6,6.3,4.4c1.7,1.9,3.1,4.1,4,6.6.9,2.6,1.4,5.3,1.4,8.3v2.4h-31.1c0,1.9.3,3.6.8,5.2.5,1.6,1.3,2.9,2.2,4,1,1.1,2.2,2,3.6,2.6,1.4.6,3.1.9,5.1.9s4.4-.4,6-1.3c1.6-.9,2.9-2.2,3.8-3.9h9.2c-1.7,3.9-4.1,6.9-7.3,9-3.2,2.1-7.1,3.2-11.7,3.2s-6-.5-8.5-1.6ZM382.2,52.1c-.1-1.5-.4-2.9-.9-4.1-.5-1.3-1.2-2.4-2.1-3.3-.9-.9-2-1.7-3.3-2.2-1.3-.5-2.8-.8-4.5-.8s-3,.3-4.2.8c-1.2.5-2.3,1.2-3.2,2.2-.9.9-1.6,2-2.2,3.3-.6,1.3-.9,2.7-1.1,4.2h21.5Z"/><path class="cls-1" d="M405.1,76.3c-2.3-1-4.3-2.5-6-4.3-1.7-1.9-3-4.1-3.9-6.8-1-2.7-1.4-5.6-1.4-8.9s.5-6.2,1.4-8.9c1-2.7,2.3-4.9,4-6.8s3.7-3.3,6-4.3c2.3-1,4.9-1.5,7.7-1.5s5.4.6,7.5,1.7c2.1,1.1,3.9,2.8,5.2,5.1v-19.1h8.5v54.7h-8.5v-6.2c-.7,1.2-1.4,2.2-2.3,3.1-.9.9-1.9,1.6-3,2.2-1.1.6-2.3,1-3.5,1.3-1.2.3-2.6.4-4,.4-2.8,0-5.3-.5-7.6-1.5ZM409.1,42.9c-1.4.7-2.6,1.7-3.6,2.9-1,1.3-1.7,2.8-2.3,4.5-.5,1.8-.8,3.7-.8,5.9s.3,4.1.8,5.9c.5,1.8,1.3,3.3,2.3,4.5s2.2,2.2,3.6,2.9c1.4.7,3,1,4.9,1s3.5-.3,5-1c1.4-.7,2.6-1.6,3.6-2.9,1-1.2,1.7-2.8,2.2-4.5.5-1.8.8-3.7.8-5.9s-.3-4.4-.8-6.2c-.5-1.8-1.3-3.3-2.3-4.5-1-1.2-2.2-2.1-3.6-2.8-1.4-.6-3.1-.9-4.9-.9s-3.5.3-4.9,1Z"/><path class="cls-1" d="M441.1,77.8v-41.6h8.4v41.6h-8.4Z"/><path class="cls-1" d="M458.8,55.6c2.8-2.1,7-3.1,12.7-3.1h11.6v-1.1c0-1.6-.2-3-.7-4.2-.4-1.2-1.1-2.2-1.9-3.1-.8-.8-1.8-1.5-3-1.9s-2.5-.6-4.1-.6c-2.4,0-4.3.4-5.7,1.2-1.4.8-2.4,2-3,3.6h-8.9c1.2-3.9,3.3-6.8,6.1-8.8,2.9-1.9,6.7-2.9,11.5-2.9s5.6.4,7.8,1.2c2.2.8,4.1,2,5.6,3.5,1.5,1.5,2.7,3.4,3.5,5.5.8,2.2,1.2,4.6,1.2,7.3v24.8h-8.4v-5.5c-1.2,2.1-2.9,3.7-5,4.7-2.1,1-4.8,1.5-8.1,1.5s-4.4-.3-6.3-.9c-1.9-.6-3.5-1.5-4.8-2.6-1.3-1.1-2.4-2.5-3.1-4.1-.7-1.6-1.1-3.5-1.1-5.6,0-3.9,1.4-6.8,4.1-8.9ZM471.9,58.4c-3,0-5.2.5-6.6,1.4-1.4,1-2.1,2.5-2.1,4.6s.7,3.7,2,4.9c1.3,1.1,3.5,1.7,6.5,1.7s3.7-.3,5.1-.8c1.4-.5,2.6-1.3,3.5-2.3.9-1,1.6-2.4,2-3.9.4-1.6.7-3.5.7-5.6h-11.2Z"/><path class="cls-1" d="M498.4,22.4h36.3v7.7h-27.9v14.4h26.7v7.6h-26.7v18.2h28.4v7.6h-36.7V22.4Z"/><path class="cls-1" d="M539.6,35.4h8.5v6.8c.6-1.3,1.4-2.3,2.4-3.3.9-.9,1.9-1.7,3.1-2.3,1.1-.6,2.3-1.1,3.6-1.4,1.3-.3,2.6-.5,4-.5,2.4,0,4.6.4,6.6,1.1,1.9.8,3.6,1.9,5,3.5,1.4,1.6,2.4,3.6,3.2,6s1.1,5.3,1.1,8.7v23.8h-8.4v-23.6c0-2.2-.2-4-.5-5.5-.3-1.5-.9-2.8-1.6-3.7-.7-1-1.7-1.7-2.8-2.1-1.1-.4-2.5-.7-4.2-.7-3.6,0-6.4,1.2-8.3,3.5-1.9,2.3-2.9,5.8-2.9,10.5v21.6h-8.5v-42.4Z"/><path class="cls-1" d="M604,35.1c1.2.3,2.3.7,3.4,1.3s2,1.3,2.9,2.1,1.6,1.8,2.3,3v-6.1h8.4v38.8c0,3.4-.5,6.4-1.4,8.9-1,2.6-2.3,4.7-4.1,6.4-1.8,1.7-4,3-6.5,3.9-2.5.9-5.4,1.3-8.5,1.3-5.3,0-9.5-1.1-12.7-3.3-3.1-2.2-5.3-5.5-6.4-9.9h8.4c.7,2.1,2,3.7,3.7,4.7,1.8,1.1,4,1.6,6.9,1.6,4,0,7.1-1.1,9.2-3.2,2.1-2.1,3.1-5.3,3.1-9.4v-5.8c-.7,1.2-1.5,2.3-2.4,3.2-.9.9-1.9,1.6-3,2.1-1.1.5-2.3.9-3.5,1.2-1.3.2-2.6.4-4.1.4-2.6,0-5.1-.5-7.3-1.5-2.3-1-4.2-2.5-5.9-4.3-1.7-1.8-3-4-3.9-6.6-1-2.6-1.4-5.4-1.4-8.4s.5-5.9,1.4-8.5,2.3-4.8,4-6.6c1.7-1.8,3.7-3.3,6.1-4.3,2.3-1,4.9-1.5,7.7-1.5s2.7.1,3.9.4ZM596.2,42.9c-1.4.7-2.6,1.6-3.6,2.9-1,1.2-1.7,2.7-2.2,4.3-.5,1.7-.8,3.5-.8,5.5s.2,3.8.7,5.5c.5,1.7,1.2,3.1,2.2,4.3,1,1.2,2.1,2.2,3.5,2.8,1.4.7,3,1,4.7,1s3.5-.3,5-1c1.4-.7,2.7-1.6,3.7-2.8,1-1.2,1.7-2.6,2.3-4.3.5-1.7.8-3.6.8-5.6s-.2-4.1-.7-5.8c-.5-1.7-1.2-3.1-2.2-4.3-1-1.2-2.2-2.1-3.6-2.7s-3-.9-4.9-.9-3.4.3-4.9,1Z"/><path class="cls-1" d="M628.1,77.8v-43.1h8.4v43.1h-8.4Z"/><path class="cls-1" d="M643.6,35.4h8.5v6.8c.6-1.3,1.4-2.3,2.4-3.3.9-.9,1.9-1.7,3.1-2.3,1.1-.6,2.3-1.1,3.6-1.4,1.3-.3,2.6-.5,4-.5,2.4,0,4.6.4,6.6,1.1,1.9.8,3.6,1.9,5,3.5,1.4,1.6,2.4,3.6,3.2,6,.7,2.4,1.1,5.3,1.1,8.7v23.8h-8.4v-23.6c0-2.2-.2-4-.5-5.5s-.9-2.8-1.6-3.7c-.7-1-1.7-1.7-2.8-2.1-1.1-.4-2.5-.7-4.2-.7-3.6,0-6.4,1.2-8.3,3.5-1.9,2.3-2.9,5.8-2.9,10.5v21.6h-8.5v-42.4Z"/><path class="cls-1" d="M696.8,76.2c-2.5-1.1-4.7-2.5-6.5-4.4-1.8-1.9-3.2-4.2-4.1-6.8s-1.4-5.6-1.4-8.9.5-6,1.5-8.6c1-2.6,2.4-4.9,4.1-6.7s3.9-3.4,6.3-4.4c2.4-1.1,5.1-1.6,8-1.6s5.9.5,8.4,1.6,4.6,2.6,6.3,4.4c1.7,1.9,3.1,4.1,4,6.6.9,2.6,1.4,5.3,1.4,8.3v2.4h-31.1c0,1.9.3,3.6.8,5.2.5,1.6,1.3,2.9,2.2,4,1,1.1,2.2,2,3.6,2.6,1.4.6,3.1.9,5.1.9s4.4-.4,6-1.3c1.6-.9,2.9-2.2,3.8-3.9h9.2c-1.7,3.9-4.1,6.9-7.3,9-3.2,2.1-7.1,3.2-11.7,3.2s-6-.5-8.5-1.6ZM715.5,52.1c-.1-1.5-.4-2.9-.9-4.1-.5-1.3-1.2-2.4-2.1-3.3-.9-.9-2-1.7-3.3-2.2-1.3-.5-2.8-.8-4.5-.8s-3,.3-4.2.8c-1.2.5-2.3,1.2-3.2,2.2-.9.9-1.6,2-2.2,3.3-.6,1.3-.9,2.7-1.1,4.2h21.5Z"/><rect class="cls-1" x="628.1" y="22.4" width="8.4" height="7.8"/><rect class="cls-1" x="441.1" y="22.4" width="8.4" height="7.8"/><path class="cls-2" d="M66.3,5c18.5,5.8,32.3,23.1,33.5,42.3,2.6,34.4-31.5,60.6-64.7,49.8C1.7,86.3-9.8,45.1,13.3,18.8,26,3.9,48-2.1,66.6,4.1c0,0-.3.9-.3.9h0ZM66,5.9C48.1-.2,26.8,5.5,14.5,19.8-8.2,45.4,2.9,85.5,35.4,96.2c32.7,10.8,66.4-14.9,64-48.9-1.1-19-14.7-36.4-33.1-42.3,0,0-.3.9-.3.9h0Z"/><path class="cls-2" d="M81.3,13c15,11.3,22,31.5,17.5,49.6-5.9,25.4-32.3,41.7-58,36.7C21.6,95.9,5.6,80.7,1.4,62-5,36.3,11.2,8.9,37.3,2,43.6.2,50.3-.4,56.8.3c6.5.6,13,2.5,18.8,5.5,1.4.7,2,2.5,1.2,3.9-.8,1.4-2.6,2-4,1.2C37.7-7.8-3.4,22.7,5,61.2c4.9,24.3,29.7,40.3,54.3,35.9,41.1-7.2,53.9-58.2,22-84.1h0Z"/><path class="cls-2" d="M85.2,69.4c-7.3,13.6-23.1,21.9-38.6,20.2-27.9-2.7-44-32.9-30.6-57.2,13.4-24.5,48.2-27.7,65.9-6.2,10.1,12,11.8,30,4.1,43.7,0,0-.9-.5-.9-.5h0ZM84.3,69c7.4-13,5.9-30.2-3.7-41.7C63.6,6.2,30,9.2,16.8,32.9c-13.3,23.8,2.4,53.5,29.8,56.4,15.4,1.8,31.2-6.3,38.5-19.8,0,0-.9-.5-.9-.5h0Z"/><path class="cls-2" d="M26.4,81.2c-19.7-14.7-20.4-44.6-1.5-60.4,8.2-7.1,19.5-10.8,30.3-9.7,21.6,1.8,37.9,20.6,37.2,41.8-.3,8.6-3.3,17.1-8.8,23.9-2.5,3-6.9-.4-4.6-3.5,4.5-5.4,7.5-12.2,8.2-19.3,2.1-19.4-12.7-37.5-32.3-39.7-6.4-.8-13.1.1-19,2.6C9,27.8,4,63.1,26.4,81.2h0Z"/><path class="cls-2" d="M33.7,27.4c21.3-15.1,50.5,2.9,46.5,28.4-4.3,25.8-38.2,33.6-53.8,12.4-9.8-12.8-6.6-32.4,6.8-41.6,0,0,.6.8.6.8h0ZM34.2,28.2c-20.7,14.5-13.1,46.4,11.9,50.7,25.4,4.2,43.2-23.9,28.3-44.6-8.9-12.8-28.1-16.1-40.8-6.9,0,0,.6.8.6.8h0Z"/><path class="cls-2" d="M72.1,71c-16.6,17.9-46.2,9.6-51.9-13.8-3.5-13.4,3.6-28.3,16-34.6,3.6-1.7,6.2,3.4,2.6,5.2-15.2,6.8-20.2,26.2-10.5,39.6,10,14.4,31.3,16,43.7,3.6h0Z"/></g></svg>