<?xml version="1.0" encoding="UTF-8"?>
<svg id="Layer_2" data-name="Layer 2" xmlns="http://www.w3.org/2000/svg" xmlns:xlink="http://www.w3.org/1999/xlink" viewBox="0 0 2871.14 280">
  <defs>
    <style>
      .cls-1 {
        fill: url(#linear-gradient-2);
      }

      .cls-2 {
        fill: url(#linear-gradient-4);
      }

      .cls-3 {
        fill: url(#linear-gradient-3);
      }

      .cls-4 {
        fill: url(#linear-gradient-5);
      }

      .cls-5 {
        fill: #394867;
      }

      .cls-6 {
        fill: url(#linear-gradient-8);
      }

      .cls-7 {
        fill: url(#linear-gradient-7);
      }

      .cls-8 {
        fill: url(#linear-gradient-9);
      }

      .cls-9 {
        fill: url(#linear-gradient-6);
      }

      .cls-10 {
        fill: url(#linear-gradient);
      }
    </style>
    <linearGradient id="linear-gradient" x1="125.3" y1="209.54" x2="183.17" y2="267.41" gradientUnits="userSpaceOnUse">
      <stop offset="0" stop-color="#394867"/>
      <stop offset="1" stop-color="#9ba4b4"/>
    </linearGradient>
    <linearGradient id="linear-gradient-2" x1="-4.31" y1="229.82" x2="37.2" y2="188.31" gradientUnits="userSpaceOnUse">
      <stop offset="0" stop-color="#9ba4b4"/>
      <stop offset="1" stop-color="#394867"/>
    </linearGradient>
    <linearGradient id="linear-gradient-3" x1="60.53" y1="39.48" x2="263.03" y2="241.98" xlink:href="#linear-gradient"/>
    <linearGradient id="linear-gradient-4" x1="35.01" y1="182.96" x2="72.03" y2="118.84" gradientUnits="userSpaceOnUse">
      <stop offset="0" stop-color="#0a1122"/>
      <stop offset=".5" stop-color="#14274e"/>
      <stop offset="1" stop-color="#394867"/>
    </linearGradient>
    <linearGradient id="linear-gradient-5" x1="116.31" y1="21.63" x2="168.8" y2="74.11" xlink:href="#linear-gradient-4"/>
    <linearGradient id="linear-gradient-6" x1="80.84" y1="146.07" x2="165.21" y2="292.2" xlink:href="#linear-gradient-4"/>
    <linearGradient id="linear-gradient-7" x1="154.04" y1="129.51" x2="200.05" y2="83.51" gradientUnits="userSpaceOnUse">
      <stop offset="0" stop-color="#f5f5f7"/>
      <stop offset="1" stop-color="#9ba4b4"/>
    </linearGradient>
    <linearGradient id="linear-gradient-8" x1="3.61" y1="55.66" x2="96.41" y2="216.39" gradientUnits="userSpaceOnUse">
      <stop offset=".25" stop-color="#f5f5f7"/>
      <stop offset="1" stop-color="#9ba4b4"/>
    </linearGradient>
    <linearGradient id="linear-gradient-9" x1="189.39" y1="266.58" x2="241.62" y2="214.35" xlink:href="#linear-gradient-7"/>
  </defs>
  <g id="Layer_1-2" data-name="Layer 1">
    <g>
      <g>
        <g>
          <path class="cls-5" d="M1982.76,76.97h93.24v12.82h-78.96v49.31h75.41v12.6h-75.41v60.59h80.14v12.71h-94.42V76.97Z"/>
          <path class="cls-5" d="M2088.24,109.88h14.61v24.61c1.65-3.95,3.74-7.43,6.28-10.46,2.54-3.03,5.46-5.61,8.75-7.73,3.29-2.12,6.96-3.72,11.01-4.82,4.04-1.1,8.36-1.64,12.94-1.64,6.59,0,12.48.99,17.67,2.96,5.19,1.97,9.6,5.06,13.21,9.26,3.62,4.2,6.37,9.57,8.27,16.11,1.9,6.54,2.85,14.41,2.85,23.61v63.22h-14.61v-62.89c0-6.94-.56-12.87-1.67-17.81-1.11-4.93-2.88-9-5.32-12.22-2.44-3.21-5.57-5.55-9.4-7.01-3.83-1.46-8.43-2.19-13.8-2.19-11.67,0-20.62,3.82-26.86,11.45-6.23,7.63-9.35,19.12-9.35,34.46v56.21h-14.61v-115.12Z"/>
          <path class="cls-5" d="M2211.45,109.88v-32.91h14.29v32.91h36.85v12.27h-36.85v67.45c0,7.96,1.92,13.81,5.75,17.53,3.83,3.73,9.65,5.59,17.46,5.59h13.64v12.27h-15.36c-11.96,0-20.91-2.98-26.86-8.93-5.95-5.95-8.92-14.96-8.92-27.01v-66.91h-25.78v-12.27h25.78Z"/>
          <path class="cls-5" d="M2291.42,220.84c-6.62-2.78-12.28-6.68-16.97-11.72-4.69-5.04-8.29-11.12-10.8-18.24-2.51-7.12-3.76-15.03-3.76-23.72s1.32-16.33,3.97-23.34c2.65-7.01,6.27-13.04,10.85-18.08,4.58-5.04,10.03-8.95,16.33-11.72,6.3-2.78,13.14-4.16,20.52-4.16,8.09,0,15.32,1.41,21.7,4.22,6.37,2.81,11.78,6.7,16.22,11.67,4.44,4.97,7.84,10.83,10.21,17.59,2.36,6.76,3.54,14.12,3.54,22.08v4.38h-88.19c0,6.57.82,12.51,2.47,17.8,1.65,5.3,4.08,9.81,7.3,13.53s7.25,6.59,12.08,8.6c4.83,2.01,10.44,3.01,16.81,3.01,7.45,0,13.93-1.5,19.44-4.49,5.51-2.99,9.85-7.41,13-13.26h15.79c-4.51,9.72-10.85,17.15-19.01,22.3-8.16,5.15-17.9,7.72-29.22,7.72-8.24,0-15.67-1.39-22.29-4.16ZM2347.55,158.16c-.21-4.75-1.15-9.28-2.79-13.59-1.65-4.31-3.97-8.13-6.98-11.45-3.01-3.32-6.7-5.99-11.06-8-4.37-2.01-9.42-3.01-15.15-3.01-5.23,0-9.97.93-14.23,2.79-4.26,1.86-7.91,4.4-10.96,7.62-3.04,3.21-5.48,7.03-7.3,11.45-1.83,4.42-2.95,9.15-3.38,14.19h71.87Z"/>
          <path class="cls-5" d="M2376.15,109.84h14.61v24.11c1.65-4.02,3.92-7.54,6.82-10.57,2.9-3.03,6.3-5.53,10.21-7.51,3.9-1.97,8.22-3.47,12.94-4.49,4.73-1.02,9.7-1.53,14.93-1.53h6.98v13.04h-6.66c-6.88,0-13.11.93-18.69,2.79-5.59,1.86-10.35,4.68-14.29,8.44-3.94,3.76-6.97,8.46-9.08,14.08-2.11,5.63-3.17,12.2-3.17,19.72v57.09h-14.61v-115.16Z"/>
          <path class="cls-5" d="M2449.44,109.88h14.5v22.53c3.94-7.6,9.18-13.26,15.74-16.98,6.55-3.73,14.34-5.59,23.36-5.59,7.3,0,14.07,1.37,20.3,4.11s11.6,6.63,16.11,11.67,8.06,11.09,10.63,18.13c2.58,7.05,3.87,14.96,3.87,23.72s-1.29,16.45-3.87,23.5c-2.58,7.05-6.16,13.09-10.74,18.13-4.58,5.04-10.03,8.95-16.33,11.72-6.3,2.78-13.11,4.16-20.41,4.16-4.37,0-8.49-.49-12.35-1.48s-7.43-2.47-10.69-4.44c-3.26-1.97-6.2-4.44-8.81-7.4-2.62-2.96-4.89-6.41-6.82-10.35v61.14h-14.5V109.88ZM2466.36,185.55c1.61,5.55,3.99,10.34,7.14,14.35,3.15,4.02,7.04,7.16,11.66,9.42,4.62,2.26,9.94,3.4,15.95,3.4s11.15-1.13,15.84-3.4c4.69-2.26,8.68-5.41,11.98-9.42,3.29-4.02,5.82-8.78,7.57-14.3,1.75-5.51,2.63-11.56,2.63-18.13s-.88-12.75-2.63-18.3c-1.76-5.55-4.26-10.33-7.52-14.35-3.26-4.02-7.22-7.14-11.87-9.37-4.66-2.23-9.85-3.34-15.58-3.34s-11.14.99-15.79,2.96c-4.66,1.97-8.61,4.86-11.87,8.66-3.26,3.8-5.73,8.51-7.41,14.13-1.68,5.63-2.52,12.13-2.52,19.5,0,6.57.81,12.64,2.42,18.19Z"/>
          <path class="cls-5" d="M2566.86,109.88h14.61v28.01c1.65-4.02,3.92-7.54,6.82-10.57,2.9-3.03,6.3-5.53,10.21-7.51,3.9-1.97,8.22-3.47,12.94-4.49,4.73-1.02,9.7-1.53,14.93-1.53h6.98v13.04h-6.66c-6.88,0-13.11.93-18.69,2.79-5.59,1.86-10.35,4.68-14.29,8.44-3.94,3.76-6.97,8.46-9.08,14.08-2.11,5.63-3.17,12.2-3.17,19.72v53.14h-14.61v-115.12Z"/>
          <path class="cls-5" d="M2641.01,225v-115.12h14.39v115.12h-14.39Z"/>
          <path class="cls-5" d="M2683.86,217.77c-7.95-4.82-13.25-12.01-15.9-21.58h14.61c1.79,5.55,5.39,9.7,10.8,12.44,5.41,2.74,12.37,4.11,20.89,4.11,10.81,0,19.14-1.95,24.98-5.86,5.84-3.91,8.75-9.37,8.75-16.38,0-2.63-.5-4.91-1.5-6.85-1-1.93-2.47-3.56-4.4-4.88-1.93-1.31-4.33-2.36-7.2-3.12-2.87-.77-6.16-1.33-9.88-1.7l-18.69-1.97c-5.73-.58-10.81-1.57-15.25-2.96-4.44-1.39-8.16-3.21-11.17-5.48-3.01-2.26-5.26-5.02-6.77-8.27-1.5-3.25-2.26-7.07-2.26-11.45,0-5.7,1.22-10.66,3.65-14.9,2.43-4.24,5.71-7.78,9.83-10.63,4.12-2.85,8.83-4.97,14.13-6.36,5.3-1.39,10.85-2.08,16.65-2.08,11.67,0,21.23,2.27,28.68,6.79,7.45,4.53,12.5,11.32,15.15,20.38h-14.39c-1.79-5.04-5.19-8.8-10.21-11.29-5.01-2.48-11.42-3.72-19.23-3.72-3.72,0-7.38.37-10.96,1.1-3.58.73-6.79,1.9-9.61,3.51-2.83,1.61-5.1,3.69-6.82,6.25-1.72,2.56-2.58,5.63-2.58,9.2,0,2.7.48,5,1.45,6.9.97,1.9,2.38,3.49,4.24,4.77,1.86,1.28,4.15,2.28,6.88,3.01,2.72.73,5.84,1.28,9.35,1.64l19.77,2.08c5.87.58,10.99,1.59,15.36,3.01,4.37,1.42,8.04,3.33,11.01,5.7,2.97,2.37,5.21,5.24,6.71,8.6,1.5,3.36,2.26,7.23,2.26,11.62,0,6.14-1.33,11.43-3.97,15.89-2.65,4.46-6.2,8.15-10.63,11.07-4.44,2.92-9.56,5.09-15.36,6.52-5.8,1.42-11.78,2.14-17.94,2.14-12.32,0-22.45-2.41-30.4-7.23Z"/>
          <path class="cls-5" d="M2799.33,220.84c-6.62-2.78-12.28-6.68-16.97-11.72-4.69-5.04-8.29-11.12-10.8-18.24-2.51-7.12-3.76-15.03-3.76-23.72s1.32-16.33,3.97-23.34c2.65-7.01,6.27-13.04,10.85-18.08,4.58-5.04,10.03-8.95,16.33-11.72,6.3-2.78,13.14-4.16,20.52-4.16,8.09,0,15.32,1.41,21.7,4.22,6.37,2.81,11.78,6.7,16.22,11.67,4.44,4.97,7.84,10.83,10.21,17.59,2.36,6.76,3.54,14.12,3.54,22.08v4.38h-88.19c0,6.57.82,12.51,2.47,17.8,1.65,5.3,4.08,9.81,7.3,13.53s7.25,6.59,12.08,8.6c4.83,2.01,10.44,3.01,16.81,3.01,7.45,0,13.93-1.5,19.44-4.49,5.51-2.99,9.85-7.41,13-13.26h15.79c-4.51,9.72-10.85,17.15-19.01,22.3-8.16,5.15-17.9,7.72-29.22,7.72-8.24,0-15.67-1.39-22.29-4.16ZM2855.46,158.16c-.21-4.75-1.15-9.28-2.79-13.59-1.65-4.31-3.97-8.13-6.98-11.45-3.01-3.32-6.7-5.99-11.06-8-4.37-2.01-9.42-3.01-15.15-3.01-5.23,0-9.97.93-14.23,2.79-4.26,1.86-7.91,4.4-10.96,7.62-3.04,3.21-5.48,7.03-7.3,11.45-1.83,4.42-2.95,9.15-3.38,14.19h71.87Z"/>
          <rect class="cls-5" x="2641.01" y="76.97" width="14.39" height="15.23"/>
        </g>
        <g>
          <path class="cls-5" d="M1429.61,109.88h22.77v19.9c1.72-3.36,3.81-6.26,6.28-8.71,2.47-2.45,5.19-4.51,8.16-6.19,2.97-1.68,6.16-2.94,9.56-3.78,3.4-.84,6.93-1.26,10.58-1.26,6.52,0,12.37,1,17.56,3.01,5.19,2.01,9.63,5.11,13.32,9.31,3.69,4.2,6.5,9.53,8.43,16,1.93,6.46,2.9,14.19,2.9,23.17v63.66h-22.56v-63c0-5.77-.47-10.68-1.4-14.74-.93-4.05-2.38-7.38-4.35-9.97-1.97-2.59-4.48-4.47-7.52-5.64-3.04-1.17-6.75-1.75-11.12-1.75-9.67,0-17.06,3.11-22.18,9.31-5.12,6.21-7.68,15.56-7.68,28.05v57.75h-22.77v-115.12Z"/>
          <path class="cls-5" d="M1704.78,109.88h22.77v19.9c1.72-3.36,3.81-6.26,6.28-8.71,2.47-2.45,5.19-4.51,8.16-6.19,2.97-1.68,6.16-2.94,9.56-3.78,3.4-.84,6.93-1.26,10.58-1.26,6.52,0,12.37,1,17.56,3.01,5.19,2.01,9.63,5.11,13.32,9.31,3.69,4.2,6.5,9.53,8.43,16,1.93,6.46,2.9,14.19,2.9,23.17v63.66h-22.56v-63c0-5.77-.47-10.68-1.4-14.74-.93-4.05-2.38-7.38-4.35-9.97-1.97-2.59-4.48-4.47-7.52-5.64-3.04-1.17-6.75-1.75-11.12-1.75-9.67,0-17.06,3.11-22.18,9.31-5.12,6.21-7.68,15.56-7.68,28.05v57.75h-22.77v-115.12Z"/>
          <path class="cls-5" d="M1320.34,76.97h97v19.94h-74.66v42.19h71.33v19.72h-71.33v45.65h75.84v19.83h-98.18V76.97Z"/>
          <path class="cls-5" d="M1846.3,220.78c-6.77-2.81-12.55-6.76-17.35-11.83-4.8-5.08-8.49-11.18-11.06-18.3s-3.87-15.03-3.87-23.72,1.32-15.98,3.97-22.96c2.65-6.98,6.34-12.98,11.06-18.02s10.33-8.99,16.81-11.83c6.48-2.85,13.59-4.27,21.32-4.27,8.31,0,15.75,1.44,22.34,4.33,6.59,2.89,12.21,6.83,16.87,11.83,4.65,5,8.2,10.92,10.63,17.75,2.43,6.83,3.65,14.23,3.65,22.19v6.46h-83.14c.14,5.11.89,9.75,2.26,13.92,1.36,4.16,3.35,7.74,5.96,10.74,2.61,3,5.85,5.3,9.72,6.9,3.87,1.61,8.38,2.41,13.54,2.41,6.37,0,11.71-1.17,16.01-3.51,4.3-2.34,7.66-5.81,10.1-10.41h24.6c-4.51,10.37-11.03,18.39-19.55,24.05-8.52,5.66-18.91,8.49-31.15,8.49-8.38,0-15.95-1.41-22.72-4.22ZM1896.09,156.52c-.29-3.95-1.13-7.62-2.52-11.01-1.4-3.4-3.29-6.35-5.69-8.88-2.4-2.52-5.32-4.51-8.75-5.97-3.44-1.46-7.41-2.19-11.92-2.19-4.15,0-7.9.7-11.23,2.08-3.33,1.39-6.2,3.31-8.59,5.75-2.4,2.45-4.35,5.41-5.85,8.88-1.5,3.47-2.47,7.25-2.9,11.34h57.47Z"/>
          <g>
            <path class="cls-5" d="M1664.25,225v-115.16h22.56v115.16h-22.56Z"/>
            <rect class="cls-5" x="1664.25" y="76.97" width="22.56" height="20.82"/>
          </g>
          <path class="cls-5" d="M1636.09,109.88h-12.67v17.8c-1.74-2.92-3.71-5.46-5.91-7.6-2.29-2.23-4.83-4.11-7.63-5.64s-5.8-2.68-9.02-3.45c-3.22-.77-6.66-1.15-10.31-1.15-.19,0-.37.01-.56.01-.17,0-.34-.01-.51-.01-7.45,0-14.29,1.37-20.52,4.11s-11.6,6.61-16.11,11.61c-4.51,5-8.04,11.07-10.58,18.19-2.54,7.12-3.81,15.03-3.81,23.72s1.27,16.6,3.81,23.72c2.54,7.12,6.05,13.19,10.53,18.19,4.47,5,9.83,8.86,16.06,11.56,6.23,2.7,13.03,4.05,20.41,4.05,3.79,0,7.36-.37,10.69-1.1,3.33-.73,6.45-1.86,9.35-3.4,2.9-1.53,5.53-3.45,7.9-5.75s4.44-5.02,6.23-8.16v17.11c-.73,8.62-3.41,15.33-8.06,20.09-5.52,5.66-13.68,8.49-24.49,8.49-7.52,0-13.63-1.44-18.32-4.33-4.69-2.89-8-7.11-9.94-12.66h-22.45c2.94,11.83,8.59,20.67,16.97,26.52,8.38,5.84,19.66,8.77,33.84,8.77,8.38,0,15.97-1.17,22.77-3.51,6.8-2.34,12.6-5.81,17.4-10.41,4.8-4.6,8.49-10.34,11.06-17.2,2.58-6.87,3.87-14.83,3.87-23.89v-105.69h-10ZM1592.59,129.02c.1,0,.19,0,.28,0,.09,0,.17,0,.26,0,4.87,0,9.2.82,13,2.47,3.79,1.64,7,4.04,9.61,7.18,2.61,3.14,4.58,6.98,5.91,11.5,1.32,4.53,1.99,9.68,1.99,15.45,0,2.46-.15,4.83-.42,7.1-.29,3.75-.9,7.27-1.83,10.54-1.36,4.75-3.35,8.79-5.96,12.11-2.62,3.32-5.84,5.9-9.67,7.72-3.83,1.83-8.25,2.74-13.27,2.74s-9.2-.93-13-2.79c-3.8-1.86-7.02-4.47-9.67-7.83-2.65-3.36-4.66-7.38-6.02-12.05-1.36-4.67-2.04-9.9-2.04-15.67s.68-11.01,2.04-15.72c1.36-4.71,3.37-8.75,6.02-12.11,2.65-3.36,5.89-5.97,9.72-7.83,3.83-1.86,8.18-2.79,13.05-2.79Z"/>
          <g>
            <path class="cls-5" d="M360.89,219.69c-8.31-3.54-15.34-8.55-21.11-15.01-5.77-6.46-10.17-14.26-13.21-23.39-3.04-9.13-4.57-19.25-4.57-30.35s1.52-21.77,4.57-30.9c3.04-9.13,7.45-16.89,13.21-23.28,5.76-6.39,12.82-11.29,21.16-14.68,8.34-3.4,17.78-5.1,28.31-5.1s20.52,1.77,28.9,5.31c8.38,3.54,15.4,8.53,21.05,14.96,5.66,6.43,9.95,14.19,12.89,23.28,2.94,9.09,4.4,19.23,4.4,30.41s-1.52,21.22-4.57,30.35c-3.04,9.13-7.45,16.93-13.21,23.39-5.77,6.46-12.8,11.47-21.11,15.01-8.31,3.54-17.76,5.31-28.36,5.31s-20.05-1.77-28.36-5.31ZM348.1,174.6c2.15,6.79,5.17,12.44,9.08,16.93,3.9,4.49,8.59,7.85,14.07,10.08,5.48,2.23,11.48,3.34,17.99,3.34s12.58-1.11,17.99-3.34c5.41-2.23,10.08-5.59,14.02-10.08,3.94-4.49,6.98-10.13,9.13-16.93,2.15-6.79,3.22-14.68,3.22-23.67s-1.09-16.96-3.28-23.72c-2.19-6.76-5.25-12.38-9.18-16.87-3.94-4.49-8.61-7.85-14.02-10.08-5.41-2.23-11.37-3.34-17.89-3.34s-12.48,1.11-17.89,3.34c-5.41,2.23-10.08,5.59-14.02,10.08-3.94,4.49-7,10.12-9.18,16.87-2.19,6.76-3.28,14.67-3.28,23.72s1.07,16.87,3.22,23.67Z"/>
            <path class="cls-5" d="M479.12,109.84l32.33,87,32.55-87h23.1l-45.55,115.16h-20.52l-45.65-115.16h23.74Z"/>
            <path class="cls-5" d="M591.77,220.78c-6.77-2.81-12.55-6.76-17.35-11.83-4.8-5.08-8.49-11.18-11.06-18.3s-3.87-15.03-3.87-23.72,1.32-15.98,3.97-22.96c2.65-6.98,6.34-12.98,11.06-18.02s10.33-8.99,16.81-11.83c6.48-2.85,13.59-4.27,21.32-4.27,8.31,0,15.75,1.44,22.34,4.33,6.59,2.89,12.21,6.83,16.87,11.83,4.65,5,8.2,10.92,10.63,17.75,2.43,6.83,3.65,14.23,3.65,22.19v6.46h-83.14c.14,5.11.89,9.75,2.26,13.92,1.36,4.16,3.35,7.74,5.96,10.74,2.61,3,5.85,5.3,9.72,6.9,3.87,1.61,8.38,2.41,13.54,2.41,6.37,0,11.71-1.17,16.01-3.51,4.3-2.34,7.66-5.81,10.1-10.41h24.6c-4.51,10.37-11.03,18.39-19.55,24.05-8.52,5.66-18.91,8.49-31.15,8.49-8.38,0-15.95-1.41-22.72-4.22ZM641.56,156.52c-.29-3.95-1.13-7.62-2.52-11.01-1.4-3.4-3.29-6.35-5.69-8.88-2.4-2.52-5.32-4.51-8.75-5.97-3.44-1.46-7.41-2.19-11.92-2.19-4.15,0-7.9.7-11.23,2.08-3.33,1.39-6.2,3.31-8.59,5.75-2.4,2.45-4.35,5.41-5.85,8.88-1.5,3.47-2.47,7.25-2.9,11.34h57.47Z"/>
            <path class="cls-5" d="M677.52,109.88h22.77v19.9c1.72-3.36,3.81-6.26,6.28-8.71,2.47-2.45,5.19-4.51,8.16-6.19,2.97-1.68,6.16-2.94,9.56-3.78,3.4-.84,6.93-1.26,10.58-1.26,6.52,0,12.37,1,17.56,3.01,5.19,2.01,9.63,5.11,13.32,9.31,3.69,4.2,6.5,9.53,8.43,16,1.93,6.46,2.9,14.19,2.9,23.17v63.66h-22.56v-63c0-5.77-.47-10.68-1.4-14.74-.93-4.05-2.38-7.38-4.35-9.97-1.97-2.59-4.48-4.47-7.52-5.64-3.04-1.17-6.75-1.75-11.12-1.75-9.67,0-17.06,3.11-22.18,9.31-5.12,6.21-7.68,15.56-7.68,28.05v57.75h-22.77v-115.12Z"/>
            <path class="cls-5" d="M794.32,225V76.97h21.38l40.82,62.13,41.04-62.13h21.38v148.03h-22.45v-110.01l-39.96,57.42-39.85-57.42v110.01h-22.34Z"/>
            <path class="cls-5" d="M963.7,220.78c-6.77-2.81-12.55-6.76-17.35-11.83-4.8-5.08-8.49-11.18-11.06-18.3s-3.87-15.03-3.87-23.72,1.32-15.98,3.97-22.96c2.65-6.98,6.34-12.98,11.06-18.02s10.33-8.99,16.81-11.83c6.48-2.85,13.59-4.27,21.32-4.27,8.31,0,15.75,1.44,22.34,4.33,6.59,2.89,12.21,6.83,16.87,11.83,4.65,5,8.2,10.92,10.63,17.75,2.43,6.83,3.65,14.23,3.65,22.19v6.46h-83.14c.14,5.11.89,9.75,2.26,13.92,1.36,4.16,3.35,7.74,5.96,10.74,2.61,3,5.85,5.3,9.72,6.9,3.87,1.61,8.38,2.41,13.54,2.41,6.37,0,11.71-1.17,16.01-3.51,4.3-2.34,7.66-5.81,10.1-10.41h24.6c-4.51,10.37-11.03,18.39-19.55,24.05-8.52,5.66-18.91,8.49-31.15,8.49-8.38,0-15.95-1.41-22.72-4.22ZM1013.49,156.52c-.29-3.95-1.13-7.62-2.52-11.01-1.4-3.4-3.29-6.35-5.69-8.88-2.4-2.52-5.32-4.51-8.75-5.97-3.44-1.46-7.41-2.19-11.92-2.19-4.15,0-7.9.7-11.23,2.08-3.33,1.39-6.2,3.31-8.59,5.75-2.4,2.45-4.35,5.41-5.85,8.88-1.5,3.47-2.47,7.25-2.9,11.34h57.47Z"/>
            <path class="cls-5" d="M1073.82,220.95c-6.23-2.7-11.58-6.56-16.06-11.56-4.48-5-7.99-11.07-10.53-18.19-2.54-7.12-3.81-15.03-3.81-23.72s1.27-16.6,3.81-23.72c2.54-7.12,6.07-13.18,10.58-18.19,4.51-5,9.88-8.88,16.11-11.61s13.07-4.11,20.52-4.11,14.34,1.52,20.03,4.55c5.69,3.03,10.33,7.58,13.91,13.64v-51.06h22.67v148.03h-22.67v-18.41c-1.79,3.14-3.87,5.86-6.23,8.16s-5,4.22-7.9,5.75c-2.9,1.53-6.02,2.67-9.35,3.4-3.33.73-6.89,1.1-10.69,1.1-7.38,0-14.18-1.35-20.41-4.05ZM1084.51,131.81c-3.83,1.86-7.07,4.47-9.72,7.83-2.65,3.36-4.66,7.4-6.02,12.11-1.36,4.71-2.04,9.95-2.04,15.72s.68,10.99,2.04,15.67c1.36,4.68,3.37,8.69,6.02,12.05,2.65,3.36,5.87,5.97,9.67,7.83,3.79,1.86,8.13,2.79,13,2.79s9.43-.91,13.27-2.74c3.83-1.83,7.05-4.4,9.67-7.72,2.61-3.32,4.6-7.36,5.96-12.11,1.36-4.75,2.04-10.01,2.04-15.78,0-6.21-.68-11.71-2.04-16.49-1.36-4.78-3.37-8.8-6.02-12.05-2.65-3.25-5.87-5.71-9.67-7.4-3.8-1.68-8.16-2.52-13.11-2.52s-9.22.93-13.05,2.79Z"/>
            <path class="cls-5" d="M1215.5,165.72c7.38-5.55,18.65-8.33,33.84-8.33h31.04v-2.96c0-4.24-.59-7.98-1.77-11.23-1.18-3.25-2.87-5.99-5.05-8.22-2.19-2.23-4.85-3.91-8-5.04-3.15-1.13-6.77-1.7-10.85-1.7-6.52,0-11.6,1.08-15.25,3.23-3.65,2.16-6.34,5.35-8.06,9.59h-23.85c3.29-10.44,8.77-18.26,16.44-23.45,7.66-5.19,17.9-7.78,30.72-7.78,7.95,0,14.91,1.1,20.89,3.29,5.98,2.19,11.01,5.31,15.09,9.37,4.08,4.05,7.16,8.97,9.24,14.74,2.08,5.77,3.12,12.27,3.12,19.5v66.29h-22.45v-14.68c-3.29,5.63-7.75,9.81-13.37,12.55-5.62,2.74-12.87,4.11-21.75,4.11-6.23,0-11.87-.82-16.92-2.47s-9.36-3.98-12.94-7.01c-3.58-3.03-6.34-6.72-8.27-11.07-1.93-4.34-2.9-9.33-2.9-14.96,0-10.3,3.69-18.22,11.06-23.78ZM1250.52,173.17c-8.02,0-13.88,1.28-17.56,3.83-3.69,2.56-5.53,6.65-5.53,12.27s1.79,9.97,5.37,13.04c3.58,3.07,9.35,4.6,17.29,4.6,5.3,0,9.86-.67,13.7-2.03,3.83-1.35,6.96-3.41,9.4-6.19,2.43-2.78,4.24-6.28,5.42-10.52,1.18-4.24,1.77-9.24,1.77-15.01h-29.86Z"/>
            <g>
              <path class="cls-5" d="M1169.17,225v-115.12h22.56v115.12h-22.56Z"/>
              <rect class="cls-5" x="1169.17" y="76.97" width="22.56" height="20.82"/>
            </g>
          </g>
        </g>
      </g>
      <g>
        <g>
          <polygon class="cls-10" points="127.87 212.86 113.59 221.26 186.69 263.88 186.69 247.5 127.87 212.86"/>
          <polygon class="cls-1" points="13.57 170.44 13.57 247.7 27.52 239.5 27.52 178.63 13.57 170.44"/>
          <path class="cls-3" d="M193.29,157.59V54.76L100.02,0h0v196.45l13.57-7.97v-61.31l166.41,97.85v-16.38l-86.71-51.05ZM179.73,149.59l-66.14-38.83V24.35l66.14,38.83v86.41Z"/>
        </g>
        <g>
          <polygon class="cls-2" points="13.57 170.44 27.52 178.63 86.45 143.53 86.45 127.17 13.57 170.44"/>
          <polygon class="cls-4" points="113.59 24.35 113.59 40.76 166.16 71.64 179.73 63.18 113.59 24.35"/>
          <path class="cls-9" d="M113.59,127.17v16.41l52.57,30.82L0,272.06l13.54,7.94,86.84-51.02,86.31,50.82,93.31-54.78L113.59,127.17ZM113.59,221.26l66.14-38.9,72.79,42.88-65.82,38.64-73.11-42.62Z"/>
        </g>
        <g>
          <polygon class="cls-7" points="166.16 71.64 166.16 141.63 179.73 149.59 179.73 63.18 166.16 71.64"/>
          <path class="cls-6" d="M151.86,166.01l-51.84,30.44V0h0c-8.44,5.24-13.57,14.46-13.57,24.39v86.37L.23,162.02c0,29.92,0,79.92-.23,110.03l166.16-97.66-14.3-8.38ZM86.45,204.41L13.57,247.7c0-12.52,0-65.42,0-77.26l72.88-43.27v77.24Z"/>
          <polygon class="cls-8" points="238.56 217.05 186.69 247.5 186.69 263.88 252.51 225.24 238.56 217.05"/>
        </g>
      </g>
    </g>
  </g>
</svg>