<?xml version="1.0" encoding="UTF-8"?>
<svg id="Layer_2" data-name="Layer 2" xmlns="http://www.w3.org/2000/svg" viewBox="0 0 320 320">
  <defs>
    <style>
      .cls-1 {
        fill: #14274e;
      }

      .cls-2 {
        fill: #394867;
      }

      .cls-3 {
        fill: #9ba4b4;
      }
    </style>
  </defs>
  <g id="Layer_1-2" data-name="Layer 1">
    <g>
      <g>
        <polygon class="cls-2" points="146.13 243.27 129.81 252.87 213.36 301.58 213.36 282.86 146.13 243.27"/>
        <polygon class="cls-2" points="15.51 194.79 15.51 283.09 31.45 273.71 31.45 204.15 15.51 194.79"/>
        <path class="cls-2" d="M220.91,180.11V62.59L114.31,0h0v224.73l15.51-9.1v-70.29l190.19,111.83v-18.72l-99.09-58.33ZM205.4,170.99l-75.59-44.49V27.83l75.59,44.38v98.78Z"/>
      </g>
      <g>
        <polygon class="cls-1" points="15.51 194.79 31.45 204.15 98.8 164.03 98.8 145.34 15.51 194.79"/>
        <polygon class="cls-1" points="129.81 27.83 129.81 46.58 189.89 81.87 205.4 72.21 129.81 27.83"/>
        <path class="cls-1" d="M129.81,145.34v18.75l60.08,35.22L0,310.92l15.47,9.08,99.25-58.31,98.64,58.08,106.64-62.61-190.19-111.83ZM129.81,252.87l75.59-44.46,83.19,49.01-75.22,44.16-83.55-48.71Z"/>
      </g>
      <g>
        <polygon class="cls-3" points="189.89 81.87 189.9 161.86 205.4 170.99 205.4 72.21 189.89 81.87"/>
        <path class="cls-3" d="M173.55,189.94l-59.25,34.78V0h0c-9.64,5.98-15.51,16.53-15.51,27.87v98.71L.27,185.17c0,34.19,0,91.34-.27,125.75l189.89-111.61-16.34-9.37ZM98.8,233.89l-83.29,49.2c0-14.31,0-74.76,0-88.3l83.3-49.45v88.55Z"/>
        <polygon class="cls-3" points="272.64 248.06 213.36 282.86 213.36 301.58 288.59 257.42 272.64 248.06"/>
      </g>
    </g>
  </g>
</svg>