<?xml version="1.0" encoding="UTF-8"?>
<svg id="Layer_2" data-name="Layer 2" xmlns="http://www.w3.org/2000/svg" xmlns:xlink="http://www.w3.org/1999/xlink" viewBox="0 0 320 320">
  <defs>
    <style>
      .cls-1 {
        fill: url(#linear-gradient-2);
      }

      .cls-2 {
        fill: url(#linear-gradient-4);
      }

      .cls-3 {
        fill: url(#linear-gradient-3);
      }

      .cls-4 {
        fill: url(#linear-gradient-5);
      }

      .cls-5 {
        fill: url(#linear-gradient-8);
      }

      .cls-6 {
        fill: url(#linear-gradient-7);
      }

      .cls-7 {
        fill: url(#linear-gradient-9);
      }

      .cls-8 {
        fill: url(#linear-gradient-6);
      }

      .cls-9 {
        fill: url(#linear-gradient);
      }
    </style>
    <linearGradient id="linear-gradient" x1="143.2" y1="239.48" x2="209.34" y2="305.61" gradientUnits="userSpaceOnUse">
      <stop offset="0" stop-color="#394867"/>
      <stop offset="1" stop-color="#9ba4b4"/>
    </linearGradient>
    <linearGradient id="linear-gradient-2" x1="-4.93" y1="262.66" x2="42.51" y2="215.21" gradientUnits="userSpaceOnUse">
      <stop offset="0" stop-color="#9ba4b4"/>
      <stop offset="1" stop-color="#394867"/>
    </linearGradient>
    <linearGradient id="linear-gradient-3" x1="69.13" y1="45.18" x2="300.56" y2="276.61" xlink:href="#linear-gradient"/>
    <linearGradient id="linear-gradient-4" x1="40.02" y1="209.09" x2="82.32" y2="135.82" gradientUnits="userSpaceOnUse">
      <stop offset="0" stop-color="#0a1122"/>
      <stop offset=".5" stop-color="#14274e"/>
      <stop offset="1" stop-color="#394867"/>
    </linearGradient>
    <linearGradient id="linear-gradient-5" x1="132.93" y1="24.72" x2="192.91" y2="84.7" xlink:href="#linear-gradient-4"/>
    <linearGradient id="linear-gradient-6" x1="92.39" y1="166.94" x2="188.81" y2="333.95" xlink:href="#linear-gradient-4"/>
    <linearGradient id="linear-gradient-7" x1="176.06" y1="148.02" x2="228.63" y2="95.44" gradientUnits="userSpaceOnUse">
      <stop offset="0" stop-color="#f8fafc"/>
      <stop offset="1" stop-color="#9ba4b4"/>
    </linearGradient>
    <linearGradient id="linear-gradient-8" x1="4.13" y1="63.61" x2="110.18" y2="247.31" gradientUnits="userSpaceOnUse">
      <stop offset=".25" stop-color="#f8fafc"/>
      <stop offset="1" stop-color="#9ba4b4"/>
    </linearGradient>
    <linearGradient id="linear-gradient-9" x1="216.45" y1="304.66" x2="276.14" y2="244.97" xlink:href="#linear-gradient-7"/>
  </defs>
  <g id="Layer_1-2" data-name="Layer 1">
    <g>
      <g>
        <polygon class="cls-9" points="146.13 243.27 129.81 252.87 213.36 301.58 213.36 282.86 146.13 243.27"/>
        <polygon class="cls-1" points="15.51 194.79 15.51 283.09 31.45 273.71 31.45 204.15 15.51 194.79"/>
        <path class="cls-3" d="M220.91,180.11V62.59L114.31,0h0v224.73l15.51-9.1v-70.29l190.19,111.83v-18.72l-99.09-58.33ZM205.4,170.99l-75.59-44.49V27.83l75.59,44.38v98.78Z"/>
      </g>
      <g>
        <polygon class="cls-2" points="15.51 194.79 31.45 204.15 98.8 164.03 98.8 145.34 15.51 194.79"/>
        <polygon class="cls-4" points="129.81 27.83 129.81 46.58 189.89 81.87 205.4 72.21 129.81 27.83"/>
        <path class="cls-8" d="M129.81,145.34v18.75l60.08,35.22L0,310.92l15.47,9.08,99.25-58.31,98.64,58.08,106.64-62.61-190.19-111.83ZM129.81,252.87l75.59-44.46,83.19,49.01-75.22,44.16-83.55-48.71Z"/>
      </g>
      <g>
        <polygon class="cls-6" points="189.89 81.87 189.9 161.86 205.4 170.99 205.4 72.21 189.89 81.87"/>
        <path class="cls-5" d="M173.55,189.94l-59.25,34.78V0h0c-9.64,5.98-15.51,16.53-15.51,27.87v98.71L.27,185.17c0,34.19,0,91.34-.27,125.75l189.89-111.61-16.34-9.37ZM98.8,233.89l-83.29,49.2c0-14.31,0-74.76,0-88.3l83.3-49.45v88.55Z"/>
        <polygon class="cls-7" points="272.64 248.06 213.36 282.86 213.36 301.58 288.59 257.42 272.64 248.06"/>
      </g>
    </g>
  </g>
</svg>