<?xml version="1.0" encoding="UTF-8"?>
<svg id="Layer_2" data-name="Layer 2" xmlns="http://www.w3.org/2000/svg" viewBox="0 0 1012.15 173.89">
  <defs>
    <style>
      .cls-1 {
        fill: #9ba4b4;
      }
    </style>
  </defs>
  <g id="Layer_1-2" data-name="Layer 1">
    <g>
      <path class="cls-1" d="M472.32,0h62.95c7.52,0,14.2,1.11,20.03,3.34,5.84,2.23,10.72,5.26,14.66,9.09,3.94,3.83,6.93,8.36,8.97,13.59,2.04,5.22,3.06,10.87,3.06,16.93s-.99,11.93-2.95,17.15c-1.97,5.22-4.94,9.74-8.92,13.53-3.97,3.8-8.92,6.76-14.82,8.88-5.91,2.12-12.84,3.18-20.79,3.18h-39.85v62.35h-22.34V0ZM494.67,20.05v45.69h37.38c9.09,0,15.93-1.86,20.52-5.59,4.58-3.73,6.88-9.35,6.88-16.87s-2.29-13.64-6.88-17.48c-4.58-3.83-11.42-5.75-20.52-5.75h-37.38Z"/>
      <path class="cls-1" d="M588.33,148.03V0h22.88v148.03h-22.88Z"/>
      <path class="cls-1" d="M634.8,88.75c7.38-5.55,18.65-8.33,33.84-8.33h31.04v-2.96c0-4.24-.59-7.98-1.77-11.23-1.18-3.25-2.87-5.99-5.05-8.22-2.19-2.23-4.85-3.91-8-5.04-3.15-1.13-6.77-1.7-10.85-1.7-6.52,0-11.6,1.08-15.25,3.23-3.65,2.16-6.34,5.35-8.06,9.59h-23.85c3.29-10.44,8.77-18.26,16.44-23.45,7.66-5.19,17.9-7.78,30.72-7.78,7.95,0,14.91,1.1,20.89,3.29,5.98,2.19,11.01,5.31,15.09,9.37,4.08,4.05,7.16,8.97,9.24,14.74,2.08,5.77,3.12,12.27,3.12,19.5v68.26h-22.45v-16.66c-3.29,5.63-7.75,9.81-13.37,12.55-5.62,2.74-12.87,4.11-21.75,4.11-6.23,0-11.87-.82-16.92-2.47s-9.36-3.98-12.94-7.01c-3.58-3.03-6.34-6.72-8.27-11.07-1.93-4.34-2.9-9.33-2.9-14.96,0-10.3,3.69-18.22,11.06-23.78ZM669.82,96.2c-8.02,0-13.88,1.28-17.56,3.83-3.69,2.56-5.53,6.65-5.53,12.27s1.79,9.97,5.37,13.04c3.58,3.07,9.35,4.6,17.29,4.6,5.3,0,9.86-.67,13.7-2.03,3.83-1.35,6.96-3.41,9.4-6.19,2.43-2.78,4.24-6.28,5.42-10.52,1.18-4.24,1.77-9.24,1.77-15.01h-29.86Z"/>
      <path class="cls-1" d="M742.82,32.87l31.47,71.77,31.47-71.77h23.63l-54.36,118.01c-3.58,7.74-8.52,13.51-14.82,17.31-6.3,3.8-14.04,5.7-23.2,5.7h-10.1v-19.06h7.73c5.16,0,9.47-1.15,12.94-3.45,3.47-2.3,6.35-5.9,8.65-10.79l6.23-13.37-43.51-94.34h23.85Z"/>
      <path class="cls-1" d="M854.32,143.81c-6.77-2.81-12.55-6.76-17.35-11.83-4.8-5.08-8.49-11.18-11.06-18.3s-3.87-15.03-3.87-23.72,1.32-15.98,3.97-22.96c2.65-6.98,6.34-12.98,11.06-18.02s10.33-8.99,16.81-11.83c6.48-2.85,13.59-4.27,21.32-4.27,8.31,0,15.75,1.44,22.34,4.33,6.59,2.89,12.21,6.83,16.87,11.83,4.65,5,8.2,10.92,10.63,17.75,2.43,6.83,3.65,14.23,3.65,22.19v6.46h-83.14c.14,5.11.89,9.75,2.26,13.92,1.36,4.16,3.35,7.74,5.96,10.74,2.61,3,5.85,5.3,9.72,6.9,3.87,1.61,8.38,2.41,13.54,2.41,6.37,0,11.71-1.17,16.01-3.51,4.3-2.34,7.66-5.81,10.1-10.41h24.6c-4.51,10.37-11.03,18.39-19.55,24.05-8.52,5.66-18.91,8.49-31.15,8.49-8.38,0-15.95-1.41-22.72-4.22ZM904.11,79.55c-.29-3.95-1.13-7.62-2.52-11.01-1.4-3.4-3.29-6.35-5.69-8.88-2.4-2.52-5.32-4.51-8.75-5.97-3.44-1.46-7.41-2.19-11.92-2.19-4.15,0-7.9.7-11.23,2.08-3.33,1.39-6.2,3.31-8.59,5.75-2.4,2.45-4.35,5.41-5.85,8.88-1.5,3.47-2.47,7.25-2.9,11.34h57.47Z"/>
      <path class="cls-1" d="M940.07,32.87h22.77v20.27c1.57-3.43,3.76-6.43,6.55-8.98,2.79-2.56,6.02-4.66,9.67-6.3s7.66-2.88,12.03-3.73c4.37-.84,8.88-1.26,13.54-1.26h7.52v19.94h-7.52c-6.16,0-11.8.77-16.92,2.3-5.12,1.53-9.53,3.89-13.21,7.07-3.69,3.18-6.55,7.16-8.59,11.94-2.04,4.79-3.06,10.43-3.06,16.93v56.98h-22.77V32.87Z"/>
      <path class="cls-1" d="M38.89,142.72c-8.31-3.54-15.34-8.55-21.11-15.01-5.77-6.46-10.17-14.26-13.21-23.39-3.04-9.13-4.57-19.25-4.57-30.35s1.52-21.77,4.57-30.9c3.04-9.13,7.45-16.89,13.21-23.28,5.76-6.39,12.82-11.29,21.16-14.68C47.28,1.7,56.72,0,67.25,0s20.52,1.77,28.9,5.31c8.38,3.54,15.4,8.53,21.05,14.96,5.66,6.43,9.95,14.19,12.89,23.28,2.94,9.09,4.4,19.23,4.4,30.41s-1.52,21.22-4.57,30.35c-3.04,9.13-7.45,16.93-13.21,23.39-5.77,6.46-12.8,11.47-21.11,15.01-8.31,3.54-17.76,5.31-28.36,5.31s-20.05-1.77-28.36-5.31ZM26.1,97.63c2.15,6.79,5.17,12.44,9.08,16.93,3.9,4.49,8.59,7.85,14.07,10.08,5.48,2.23,11.48,3.34,17.99,3.34s12.58-1.11,17.99-3.34c5.41-2.23,10.08-5.59,14.02-10.08,3.94-4.49,6.98-10.13,9.13-16.93,2.15-6.79,3.22-14.68,3.22-23.67s-1.09-16.96-3.28-23.72c-2.19-6.76-5.25-12.38-9.18-16.87-3.94-4.49-8.61-7.85-14.02-10.08-5.41-2.23-11.37-3.34-17.89-3.34s-12.48,1.11-17.89,3.34c-5.41,2.23-10.08,5.59-14.02,10.08-3.94,4.49-7,10.12-9.18,16.87-2.19,6.76-3.28,14.67-3.28,23.72s1.07,16.87,3.22,23.67Z"/>
      <path class="cls-1" d="M157.12,32.87l32.33,87,32.55-87h23.1l-45.55,115.16h-20.52l-45.65-115.16h23.74Z"/>
      <path class="cls-1" d="M269.77,143.81c-6.77-2.81-12.55-6.76-17.35-11.83-4.8-5.08-8.49-11.18-11.06-18.3s-3.87-15.03-3.87-23.72,1.32-15.98,3.97-22.96c2.65-6.98,6.34-12.98,11.06-18.02s10.33-8.99,16.81-11.83c6.48-2.85,13.59-4.27,21.32-4.27,8.31,0,15.75,1.44,22.34,4.33,6.59,2.89,12.21,6.83,16.87,11.83,4.65,5,8.2,10.92,10.63,17.75,2.43,6.83,3.65,14.23,3.65,22.19v6.46h-83.14c.14,5.11.89,9.75,2.26,13.92,1.36,4.16,3.35,7.74,5.96,10.74,2.61,3,5.85,5.3,9.72,6.9,3.87,1.61,8.38,2.41,13.54,2.41,6.37,0,11.71-1.17,16.01-3.51,4.3-2.34,7.66-5.81,10.1-10.41h24.6c-4.51,10.37-11.03,18.39-19.55,24.05-8.52,5.66-18.91,8.49-31.15,8.49-8.38,0-15.95-1.41-22.72-4.22ZM319.56,79.55c-.29-3.95-1.13-7.62-2.52-11.01-1.4-3.4-3.29-6.35-5.69-8.88-2.4-2.52-5.32-4.51-8.75-5.97-3.44-1.46-7.41-2.19-11.92-2.19-4.15,0-7.9.7-11.23,2.08-3.33,1.39-6.2,3.31-8.59,5.75-2.4,2.45-4.35,5.41-5.85,8.88-1.5,3.47-2.47,7.25-2.9,11.34h57.47Z"/>
      <path class="cls-1" d="M355.52,32.91h22.77v19.9c1.72-3.36,3.81-6.26,6.28-8.71,2.47-2.45,5.19-4.51,8.16-6.19,2.97-1.68,6.16-2.94,9.56-3.78,3.4-.84,6.93-1.26,10.58-1.26,6.52,0,12.37,1,17.56,3.01,5.19,2.01,9.63,5.11,13.32,9.31,3.69,4.2,6.5,9.53,8.43,16,1.93,6.46,2.9,14.19,2.9,23.17v63.66h-22.56v-63c0-5.77-.47-10.68-1.4-14.74-.93-4.05-2.38-7.38-4.35-9.97-1.97-2.59-4.48-4.47-7.52-5.64-3.04-1.17-6.75-1.75-11.12-1.75-9.67,0-17.06,3.11-22.18,9.31-5.12,6.21-7.68,15.56-7.68,28.05v57.75h-22.77V32.91Z"/>
    </g>
  </g>
</svg>