<?xml version="1.0" encoding="UTF-8"?>
<svg id="Layer_2" data-name="Layer 2" xmlns="http://www.w3.org/2000/svg" xmlns:xlink="http://www.w3.org/1999/xlink" viewBox="0 0 1347.65 280">
  <defs>
    <style>
      .cls-1 {
        fill: url(#linear-gradient-2);
      }

      .cls-2 {
        fill: url(#linear-gradient-4);
      }

      .cls-3 {
        fill: url(#linear-gradient-3);
      }

      .cls-4 {
        fill: url(#linear-gradient-5);
      }

      .cls-5 {
        fill: #394867;
      }

      .cls-6 {
        fill: url(#linear-gradient-8);
      }

      .cls-7 {
        fill: url(#linear-gradient-7);
      }

      .cls-8 {
        fill: url(#linear-gradient-9);
      }

      .cls-9 {
        fill: url(#linear-gradient-6);
      }

      .cls-10 {
        fill: url(#linear-gradient);
      }
    </style>
    <linearGradient id="linear-gradient" x1="125.3" y1="209.54" x2="183.17" y2="267.41" gradientUnits="userSpaceOnUse">
      <stop offset="0" stop-color="#394867"/>
      <stop offset="1" stop-color="#9ba4b4"/>
    </linearGradient>
    <linearGradient id="linear-gradient-2" x1="-4.31" y1="229.82" x2="37.2" y2="188.31" gradientUnits="userSpaceOnUse">
      <stop offset="0" stop-color="#9ba4b4"/>
      <stop offset="1" stop-color="#394867"/>
    </linearGradient>
    <linearGradient id="linear-gradient-3" x1="60.53" y1="39.48" x2="263.03" y2="241.98" xlink:href="#linear-gradient"/>
    <linearGradient id="linear-gradient-4" x1="35.01" y1="182.96" x2="72.03" y2="118.84" gradientUnits="userSpaceOnUse">
      <stop offset="0" stop-color="#0a1122"/>
      <stop offset=".5" stop-color="#14274e"/>
      <stop offset="1" stop-color="#394867"/>
    </linearGradient>
    <linearGradient id="linear-gradient-5" x1="116.31" y1="21.63" x2="168.8" y2="74.11" xlink:href="#linear-gradient-4"/>
    <linearGradient id="linear-gradient-6" x1="80.84" y1="146.07" x2="165.21" y2="292.2" xlink:href="#linear-gradient-4"/>
    <linearGradient id="linear-gradient-7" x1="154.04" y1="129.51" x2="200.05" y2="83.51" gradientUnits="userSpaceOnUse">
      <stop offset="0" stop-color="#f5f5f7"/>
      <stop offset="1" stop-color="#9ba4b4"/>
    </linearGradient>
    <linearGradient id="linear-gradient-8" x1="3.61" y1="55.66" x2="96.41" y2="216.39" gradientUnits="userSpaceOnUse">
      <stop offset=".25" stop-color="#f5f5f7"/>
      <stop offset="1" stop-color="#9ba4b4"/>
    </linearGradient>
    <linearGradient id="linear-gradient-9" x1="189.39" y1="266.58" x2="241.62" y2="214.35" xlink:href="#linear-gradient-7"/>
  </defs>
  <g id="Layer_1-2" data-name="Layer 1">
    <g>
      <g>
        <path class="cls-5" d="M820.53,222.42c-6.55-1.72-12.26-4.24-17.13-7.56-4.87-3.32-8.86-7.38-11.98-12.16-3.12-4.78-5.35-10.25-6.71-16.38h23.85c.79,3.14,2.17,5.9,4.14,8.27,1.97,2.38,4.47,4.35,7.52,5.92,3.04,1.57,6.55,2.74,10.53,3.51,3.97.77,8.33,1.15,13.05,1.15,5.59,0,10.6-.55,15.04-1.64,4.44-1.1,8.23-2.67,11.39-4.71,3.15-2.04,5.57-4.55,7.25-7.51,1.68-2.96,2.52-6.3,2.52-10.03,0-3.36-.59-6.25-1.77-8.66s-2.94-4.44-5.26-6.08c-2.33-1.64-5.17-2.94-8.54-3.89-3.37-.95-7.27-1.64-11.71-2.08l-17.08-1.75c-7.59-.8-14.31-2.06-20.14-3.78-5.84-1.72-10.71-4.07-14.61-7.07-3.9-2.99-6.86-6.68-8.86-11.07-2.01-4.38-3.01-9.57-3.01-15.56,0-6.57,1.34-12.58,4.03-18.02,2.69-5.44,6.48-10.1,11.39-13.97,4.9-3.87,10.76-6.9,17.56-9.09,6.8-2.19,14.29-3.29,22.45-3.29,7.52,0,14.43.86,20.73,2.58,6.3,1.72,11.82,4.22,16.54,7.51s8.61,7.3,11.66,12.05c3.04,4.75,5.1,10.23,6.18,16.44h-23.63c-.86-3.14-2.2-5.88-4.03-8.22-1.83-2.34-4.08-4.29-6.77-5.86-2.69-1.57-5.78-2.74-9.29-3.51-3.51-.77-7.3-1.15-11.39-1.15-5.3,0-9.97.57-14.02,1.7-4.05,1.13-7.45,2.74-10.21,4.82-2.76,2.08-4.85,4.55-6.28,7.4-1.43,2.85-2.15,6.06-2.15,9.64,0,2.78.54,5.11,1.61,7.01,1.07,1.9,2.67,3.49,4.78,4.77,2.11,1.28,4.76,2.3,7.95,3.07,3.19.77,6.96,1.41,11.33,1.92l17.83,1.97c7.73.8,14.57,2.16,20.52,4.05,5.94,1.9,10.92,4.51,14.93,7.83,4.01,3.33,7.02,7.38,9.02,12.16,2,4.79,3.01,10.5,3.01,17.15s-1.45,12.71-4.35,18.19-6.97,10.19-12.19,14.13c-5.23,3.94-11.53,7-18.91,9.15-7.38,2.15-15.54,3.23-24.49,3.23-8.31,0-15.74-.86-22.29-2.58Z"/>
        <path class="cls-5" d="M913.66,109.84h22.77v18.08c3.58-5.99,8.23-10.5,13.96-13.53,5.73-3.03,12.5-4.55,20.3-4.55,7.38,0,14.16,1.33,20.36,4,6.19,2.67,11.53,6.5,16.01,11.5,4.47,5,7.97,11.05,10.47,18.13,2.51,7.09,3.76,15.08,3.76,24s-1.27,16.45-3.81,23.5c-2.54,7.05-6.11,13.09-10.69,18.13-4.58,5.04-10.01,8.95-16.27,11.72-6.27,2.78-13.09,4.16-20.46,4.16-3.72,0-7.23-.37-10.53-1.1-3.29-.73-6.36-1.88-9.18-3.45-2.83-1.57-5.41-3.51-7.73-5.81-2.33-2.3-4.39-5.02-6.18-8.16v55.99h-22.77V109.84ZM938.37,183.2c1.29,4.71,3.22,8.75,5.8,12.11,2.58,3.36,5.76,5.96,9.56,7.78,3.79,1.83,8.2,2.74,13.21,2.74s9.24-.91,13.11-2.74c3.87-1.83,7.12-4.42,9.78-7.78,2.65-3.36,4.69-7.4,6.12-12.11,1.43-4.71,2.15-9.95,2.15-15.72s-.7-11.14-2.09-15.89c-1.4-4.75-3.4-8.8-6.02-12.16-2.62-3.36-5.8-5.93-9.56-7.72-3.76-1.79-8.04-2.68-12.84-2.68s-9.36.84-13.27,2.52c-3.9,1.68-7.18,4.13-9.83,7.34-2.65,3.22-4.66,7.21-6.02,12-1.36,4.79-2.04,10.28-2.04,16.49,0,5.85.64,11.12,1.93,15.83Z"/>
        <path class="cls-5" d="M1037.93,165.72c7.38-5.55,18.65-8.33,33.84-8.33h31.04v-2.96c0-4.24-.59-7.98-1.77-11.23-1.18-3.25-2.87-5.99-5.05-8.22-2.19-2.23-4.85-3.91-8-5.04-3.15-1.13-6.77-1.7-10.85-1.7-6.52,0-11.6,1.08-15.25,3.23-3.65,2.16-6.34,5.35-8.06,9.59h-23.85c3.29-10.44,8.77-18.26,16.44-23.45,7.66-5.19,17.9-7.78,30.72-7.78,7.95,0,14.91,1.1,20.89,3.29,5.98,2.19,11.01,5.31,15.09,9.37,4.08,4.05,7.16,8.97,9.24,14.74,2.08,5.77,3.12,12.27,3.12,19.5v68.26h-22.45v-16.66c-3.29,5.63-7.75,9.81-13.37,12.55-5.62,2.74-12.87,4.11-21.75,4.11-6.23,0-11.87-.82-16.92-2.47s-9.36-3.98-12.94-7.01c-3.58-3.03-6.34-6.72-8.27-11.07-1.93-4.34-2.9-9.33-2.9-14.96,0-10.3,3.69-18.22,11.06-23.78ZM1072.95,173.17c-8.02,0-13.88,1.28-17.56,3.83-3.69,2.56-5.53,6.65-5.53,12.27s1.79,9.97,5.37,13.04c3.58,3.07,9.35,4.6,17.29,4.6,5.3,0,9.86-.67,13.7-2.03,3.83-1.35,6.96-3.41,9.4-6.19,2.43-2.78,4.24-6.28,5.42-10.52,1.18-4.24,1.77-9.24,1.77-15.01h-29.86Z"/>
        <path class="cls-5" d="M1160.49,183.36c1.32,4.75,3.28,8.78,5.85,12.11,2.58,3.32,5.78,5.88,9.61,7.67,3.83,1.79,8.18,2.68,13.05,2.68,6.45,0,11.78-1.62,16.01-4.88,4.22-3.25,7.45-7.87,9.67-13.86h23.74c-2.94,12.2-8.61,21.57-17.03,28.11-8.42,6.54-19.21,9.81-32.39,9.81-8.52,0-16.15-1.41-22.88-4.22-6.73-2.81-12.39-6.74-16.97-11.78-4.58-5.04-8.06-11.08-10.42-18.13-2.36-7.05-3.54-14.85-3.54-23.39,0-9.13,1.31-17.29,3.92-24.49,2.61-7.19,6.27-13.24,10.96-18.13,4.69-4.89,10.29-8.62,16.81-11.18,6.52-2.56,13.64-3.83,21.38-3.83,13.82,0,24.83,3.16,33.03,9.48,8.2,6.32,13.8,15.76,16.81,28.32h-23.85c-2.08-5.99-5.21-10.59-9.4-13.81-4.19-3.21-9.72-4.82-16.6-4.82-4.94,0-9.28.9-13,2.68-3.72,1.79-6.84,4.37-9.35,7.72-2.51,3.36-4.37,7.42-5.59,12.16-1.22,4.75-1.83,10.04-1.83,15.89s.66,11.14,1.99,15.89Z"/>
        <path class="cls-5" d="M1273.26,220.78c-6.77-2.81-12.55-6.76-17.35-11.83-4.8-5.08-8.49-11.18-11.06-18.3s-3.87-15.03-3.87-23.72,1.32-15.98,3.97-22.96c2.65-6.98,6.34-12.98,11.06-18.02s10.33-8.99,16.81-11.83c6.48-2.85,13.59-4.27,21.32-4.27,8.31,0,15.75,1.44,22.34,4.33,6.59,2.89,12.21,6.83,16.87,11.83,4.65,5,8.2,10.92,10.63,17.75,2.43,6.83,3.65,14.23,3.65,22.19v6.46h-83.14c.14,5.11.89,9.75,2.26,13.92,1.36,4.16,3.35,7.74,5.96,10.74,2.61,3,5.85,5.3,9.72,6.9,3.87,1.61,8.38,2.41,13.54,2.41,6.37,0,11.71-1.17,16.01-3.51,4.3-2.34,7.66-5.81,10.1-10.41h24.6c-4.51,10.37-11.03,18.39-19.55,24.05-8.52,5.66-18.91,8.49-31.15,8.49-8.38,0-15.95-1.41-22.72-4.22ZM1323.05,156.52c-.29-3.95-1.13-7.62-2.52-11.01-1.4-3.4-3.29-6.35-5.69-8.88-2.4-2.52-5.32-4.51-8.75-5.97-3.44-1.46-7.41-2.19-11.92-2.19-4.15,0-7.9.7-11.23,2.08-3.33,1.39-6.2,3.31-8.59,5.75-2.4,2.45-4.35,5.41-5.85,8.88-1.5,3.47-2.47,7.25-2.9,11.34h57.47Z"/>
        <path class="cls-5" d="M360.89,219.69c-8.31-3.54-15.34-8.55-21.11-15.01-5.77-6.46-10.17-14.26-13.21-23.39-3.04-9.13-4.57-19.25-4.57-30.35s1.52-21.77,4.57-30.9c3.04-9.13,7.45-16.89,13.21-23.28,5.76-6.39,12.82-11.29,21.16-14.68,8.34-3.4,17.78-5.1,28.31-5.1s20.52,1.77,28.9,5.31c8.38,3.54,15.4,8.53,21.05,14.96,5.66,6.43,9.95,14.19,12.89,23.28,2.94,9.09,4.4,19.23,4.4,30.41s-1.52,21.22-4.57,30.35c-3.04,9.13-7.45,16.93-13.21,23.39-5.77,6.46-12.8,11.47-21.11,15.01-8.31,3.54-17.76,5.31-28.36,5.31s-20.05-1.77-28.36-5.31ZM348.1,174.6c2.15,6.79,5.17,12.44,9.08,16.93,3.9,4.49,8.59,7.85,14.07,10.08,5.48,2.23,11.48,3.34,17.99,3.34s12.58-1.11,17.99-3.34c5.41-2.23,10.08-5.59,14.02-10.08,3.94-4.49,6.98-10.13,9.13-16.93,2.15-6.79,3.22-14.68,3.22-23.67s-1.09-16.96-3.28-23.72c-2.19-6.76-5.25-12.38-9.18-16.87-3.94-4.49-8.61-7.85-14.02-10.08-5.41-2.23-11.37-3.34-17.89-3.34s-12.48,1.11-17.89,3.34c-5.41,2.23-10.08,5.59-14.02,10.08-3.94,4.49-7,10.12-9.18,16.87-2.19,6.76-3.28,14.67-3.28,23.72s1.07,16.87,3.22,23.67Z"/>
        <path class="cls-5" d="M479.12,109.84l32.33,87,32.55-87h23.1l-45.55,115.16h-20.52l-45.65-115.16h23.74Z"/>
        <path class="cls-5" d="M591.77,220.78c-6.77-2.81-12.55-6.76-17.35-11.83-4.8-5.08-8.49-11.18-11.06-18.3s-3.87-15.03-3.87-23.72,1.32-15.98,3.97-22.96c2.65-6.98,6.34-12.98,11.06-18.02s10.33-8.99,16.81-11.83c6.48-2.85,13.59-4.27,21.32-4.27,8.31,0,15.75,1.44,22.34,4.33,6.59,2.89,12.21,6.83,16.87,11.83,4.65,5,8.2,10.92,10.63,17.75,2.43,6.83,3.65,14.23,3.65,22.19v6.46h-83.14c.14,5.11.89,9.75,2.26,13.92,1.36,4.16,3.35,7.74,5.96,10.74,2.61,3,5.85,5.3,9.72,6.9,3.87,1.61,8.38,2.41,13.54,2.41,6.37,0,11.71-1.17,16.01-3.51,4.3-2.34,7.66-5.81,10.1-10.41h24.6c-4.51,10.37-11.03,18.39-19.55,24.05-8.52,5.66-18.91,8.49-31.15,8.49-8.38,0-15.95-1.41-22.72-4.22ZM641.56,156.52c-.29-3.95-1.13-7.62-2.52-11.01-1.4-3.4-3.29-6.35-5.69-8.88-2.4-2.52-5.32-4.51-8.75-5.97-3.44-1.46-7.41-2.19-11.92-2.19-4.15,0-7.9.7-11.23,2.08-3.33,1.39-6.2,3.31-8.59,5.75-2.4,2.45-4.35,5.41-5.85,8.88-1.5,3.47-2.47,7.25-2.9,11.34h57.47Z"/>
        <path class="cls-5" d="M677.52,109.88h22.77v19.9c1.72-3.36,3.81-6.26,6.28-8.71,2.47-2.45,5.19-4.51,8.16-6.19,2.97-1.68,6.16-2.94,9.56-3.78,3.4-.84,6.93-1.26,10.58-1.26,6.52,0,12.37,1,17.56,3.01,5.19,2.01,9.63,5.11,13.32,9.31,3.69,4.2,6.5,9.53,8.43,16,1.93,6.46,2.9,14.19,2.9,23.17v63.66h-22.56v-63c0-5.77-.47-10.68-1.4-14.74-.93-4.05-2.38-7.38-4.35-9.97-1.97-2.59-4.48-4.47-7.52-5.64-3.04-1.17-6.75-1.75-11.12-1.75-9.67,0-17.06,3.11-22.18,9.31-5.12,6.21-7.68,15.56-7.68,28.05v57.75h-22.77v-115.12Z"/>
      </g>
      <g>
        <g>
          <polygon class="cls-10" points="127.87 212.86 113.59 221.26 186.69 263.88 186.69 247.5 127.87 212.86"/>
          <polygon class="cls-1" points="13.57 170.44 13.57 247.7 27.52 239.5 27.52 178.63 13.57 170.44"/>
          <path class="cls-3" d="M193.29,157.59V54.76L100.02,0h0v196.45l13.57-7.97v-61.31l166.41,97.85v-16.38l-86.71-51.05ZM179.73,149.59l-66.14-38.83V24.35l66.14,38.83v86.41Z"/>
        </g>
        <g>
          <polygon class="cls-2" points="13.57 170.44 27.52 178.63 86.45 143.53 86.45 127.17 13.57 170.44"/>
          <polygon class="cls-4" points="113.59 24.35 113.59 40.76 166.16 71.64 179.73 63.18 113.59 24.35"/>
          <path class="cls-9" d="M113.59,127.17v16.41l52.57,30.82L0,272.06l13.54,7.94,86.84-51.02,86.31,50.82,93.31-54.78L113.59,127.17ZM113.59,221.26l66.14-38.9,72.79,42.88-65.82,38.64-73.11-42.62Z"/>
        </g>
        <g>
          <polygon class="cls-7" points="166.16 71.64 166.16 141.63 179.73 149.59 179.73 63.18 166.16 71.64"/>
          <path class="cls-6" d="M151.86,166.01l-51.84,30.44V0h0c-8.44,5.24-13.57,14.46-13.57,24.39v86.37L.23,162.02c0,29.92,0,79.92-.23,110.03l166.16-97.66-14.3-8.38ZM86.45,204.41L13.57,247.7c0-12.52,0-65.42,0-77.26l72.88-43.27v77.24Z"/>
          <polygon class="cls-8" points="238.56 217.05 186.69 247.5 186.69 263.88 252.51 225.24 238.56 217.05"/>
        </g>
      </g>
    </g>
  </g>
</svg>