<?xml version="1.0" encoding="UTF-8"?><svg id="Layer_2" xmlns="http://www.w3.org/2000/svg" viewBox="0 0 100.1 100.2"><defs><style>.cls-1{fill:#fff;}</style></defs><g id="_레이어_1"><path class="cls-1" d="M66.3,5c18.5,5.8,32.3,23.1,33.5,42.3,2.6,34.4-31.5,60.6-64.7,49.8C1.7,86.3-9.8,45.1,13.3,18.8,26,3.9,48-2.1,66.6,4.1c0,0-.3.9-.3.9h0ZM66,5.9C48.1-.2,26.8,5.5,14.5,19.8-8.2,45.4,2.9,85.5,35.4,96.2c32.7,10.8,66.4-14.9,64-48.9-1.1-19-14.7-36.4-33.1-42.3,0,0-.3.9-.3.9h0Z"/><path class="cls-1" d="M81.3,13c15,11.3,22,31.5,17.5,49.6-5.9,25.4-32.3,41.7-58,36.7C21.6,95.9,5.6,80.7,1.4,62-5,36.3,11.2,8.9,37.3,2,43.6.2,50.3-.4,56.8.3c6.5.6,13,2.5,18.8,5.5,1.4.7,2,2.5,1.2,3.9-.8,1.4-2.6,2-4,1.2C37.7-7.8-3.4,22.7,5,61.2c4.9,24.3,29.7,40.3,54.3,35.9,41.1-7.2,53.9-58.2,22-84.1h0Z"/><path class="cls-1" d="M85.2,69.4c-7.3,13.6-23.1,21.9-38.6,20.2-27.9-2.7-44-32.9-30.6-57.2,13.4-24.5,48.2-27.7,65.9-6.2,10.1,12,11.8,30,4.1,43.7,0,0-.9-.5-.9-.5h0ZM84.3,69c7.4-13,5.9-30.2-3.7-41.7C63.6,6.2,30,9.2,16.8,32.9c-13.3,23.8,2.4,53.5,29.8,56.4,15.4,1.8,31.2-6.3,38.5-19.8,0,0-.9-.5-.9-.5h0Z"/><path class="cls-1" d="M26.4,81.2c-19.7-14.7-20.4-44.6-1.5-60.4,8.2-7.1,19.5-10.8,30.3-9.7,21.6,1.8,37.9,20.6,37.2,41.8-.3,8.6-3.3,17.1-8.8,23.9-2.5,3-6.9-.4-4.6-3.5,4.5-5.4,7.5-12.2,8.2-19.3,2.1-19.4-12.7-37.5-32.3-39.7-6.4-.8-13.1.1-19,2.6C9,27.8,4,63.1,26.4,81.2h0Z"/><path class="cls-1" d="M33.7,27.4c21.3-15.1,50.5,2.9,46.5,28.4-4.3,25.8-38.2,33.6-53.8,12.4-9.8-12.8-6.6-32.4,6.8-41.6,0,0,.6.8.6.8h0ZM34.2,28.2c-20.7,14.5-13.1,46.4,11.9,50.7,25.4,4.2,43.2-23.9,28.3-44.6-8.9-12.8-28.1-16.1-40.8-6.9,0,0,.6.8.6.8h0Z"/><path class="cls-1" d="M72.1,71c-16.6,17.9-46.2,9.6-51.9-13.8-3.5-13.4,3.6-28.3,16-34.6,3.6-1.7,6.2,3.4,2.6,5.2-15.2,6.8-20.2,26.2-10.5,39.6,10,14.4,31.3,16,43.7,3.6h0Z"/></g></svg>