<?xml version="1.0" encoding="UTF-8"?><svg id="Layer_2" xmlns="http://www.w3.org/2000/svg" viewBox="0 0 543.2 56.4"><defs><style>.cls-1{fill:#9ca3af;}</style></defs><g id="_레이어_1"><path class="cls-1" d="M44.7,7.8c-2.2-2.5-4.9-4.4-8.1-5.7-3.2-1.3-6.9-2-11-2s-7.6.7-10.8,1.9c-3.2,1.3-5.9,3.2-8.1,5.6-2.2,2.4-3.9,5.4-5,8.9-1.2,3.5-1.7,7.4-1.7,11.7s.6,8.1,1.7,11.5c1.2,3.5,2.9,6.5,5,8.9,2.2,2.5,4.9,4.4,8.1,5.7,3.2,1.3,6.8,2,10.8,2s7.7-.7,10.8-2c3.2-1.3,5.9-3.3,8.1-5.7,2.2-2.5,3.9-5.5,5-8.9,1.2-3.5,1.7-7.3,1.7-11.5s-.6-8.1-1.7-11.5c-1.1-3.5-2.8-6.4-4.9-8.9ZM41.8,28.2c0,3.3-.4,6.2-1.2,8.7-.8,2.5-1.9,4.5-3.3,6.2-1.4,1.6-3.1,2.8-5.1,3.6-2,.8-4.2,1.2-6.5,1.2s-4.6-.4-6.5-1.2c-2-.8-3.7-2-5.1-3.6-1.4-1.6-2.5-3.7-3.3-6.2-.8-2.5-1.2-5.4-1.2-8.7s.4-6.3,1.2-8.7c.8-2.5,1.9-4.5,3.3-6.1,1.4-1.6,3.1-2.8,5.1-3.6,2-.8,4.1-1.2,6.5-1.2s4.5.4,6.5,1.2c1.9.8,3.6,2,5.1,3.6,1.4,1.6,2.5,3.7,3.3,6.1.8,2.5,1.2,5.4,1.2,8.7Z"/><polygon class="cls-1" points="83.2 12.3 71.4 43.9 59.6 12.3 49.6 12.3 67.1 56.4 75.5 56.4 92.9 12.3 83.2 12.3"/><path class="cls-1" d="M125,18.5c-1.8-1.9-4-3.4-6.5-4.5-2.5-1.1-5.4-1.7-8.6-1.7s-5.7.6-8.2,1.6c-2.5,1.1-4.6,2.6-6.5,4.5-1.8,1.9-3.2,4.3-4.2,6.9-1,2.7-1.5,5.6-1.5,8.8s.5,6.3,1.5,9c1,2.7,2.4,5.1,4.2,7,1.8,1.9,4.1,3.5,6.7,4.5h0c2.6,1.1,5.5,1.6,8.7,1.6,4.7,0,8.7-1.1,11.9-3.3,3.3-2.2,5.8-5.3,7.5-9.2l.3-.7h-10.3v.3c-1,1.6-2.2,2.9-3.7,3.7-1.5.8-3.5,1.3-5.8,1.3s-3.5-.3-4.9-.9c-1.4-.6-2.5-1.4-3.5-2.5-.9-1.1-1.6-2.4-2.1-3.8-.4-1.4-.7-2.9-.8-4.6h31.1v-2.9c0-3-.5-5.9-1.4-8.5-.9-2.6-2.3-4.9-4.1-6.8ZM99.8,29.8c.2-1.3.5-2.5,1-3.5.5-1.2,1.2-2.3,2.1-3.2.8-.9,1.9-1.5,3.1-2,1.2-.5,2.5-.7,4-.7s3,.3,4.3.8c1.2.5,2.3,1.2,3.1,2.1.9.9,1.5,2,2,3.2.4,1.1.7,2.2.9,3.4h-20.4Z"/><path class="cls-1" d="M167.9,17.1c-1.4-1.6-3.2-2.8-5.2-3.6-2-.8-4.3-1.2-6.8-1.2s-2.8.2-4.1.5c-1.3.3-2.6.8-3.7,1.5-1.1.6-2.2,1.5-3.2,2.4-.5.5-1,1.1-1.5,1.8v-5.5h-9.5v43.4h9.5v-22.1c0-4.5.9-8,2.8-10.2,1.8-2.2,4.5-3.3,7.9-3.3s2.9.2,4,.6c1,.4,1.9,1.1,2.6,1.9.7.9,1.2,2.1,1.5,3.5.3,1.5.5,3.3.5,5.4v24.1h9.4v-24.3c0-3.4-.4-6.4-1.1-8.8-.7-2.5-1.8-4.6-3.3-6.2Z"/><polygon class="cls-1" points="201.9 19.1 186.4 0 177.5 0 177.5 56.4 187 56.4 187 15.1 201.9 33.5 216.7 15 216.7 56.4 226.3 56.4 226.3 0 217.4 0 201.9 19.1"/><path class="cls-1" d="M265.2,18.5c-1.8-1.9-4-3.4-6.5-4.5-2.5-1.1-5.4-1.7-8.6-1.7s-5.7.6-8.2,1.6c-2.5,1.1-4.6,2.6-6.5,4.5-1.8,1.9-3.2,4.3-4.2,6.9-1,2.7-1.5,5.6-1.5,8.8s.5,6.3,1.5,9c1,2.7,2.4,5.1,4.2,7,1.8,1.9,4.1,3.5,6.7,4.5h0c2.6,1.1,5.5,1.6,8.7,1.6,4.7,0,8.7-1.1,11.9-3.3,3.3-2.2,5.8-5.3,7.5-9.2l.3-.7h-10.3v.3c-1,1.6-2.2,2.9-3.7,3.7-1.5.8-3.5,1.3-5.8,1.3s-3.5-.3-4.9-.9c-1.4-.6-2.5-1.4-3.5-2.5-.9-1.1-1.6-2.4-2.1-3.8-.4-1.4-.7-2.9-.8-4.6h31.1v-2.9c0-3-.5-5.9-1.4-8.5-.9-2.6-2.3-4.9-4.1-6.8ZM240,29.8c.2-1.3.5-2.5,1-3.5.5-1.2,1.2-2.3,2.1-3.2.8-.9,1.9-1.5,3.1-2,1.2-.5,2.5-.7,4-.7s3,.3,4.3.8c1.2.5,2.3,1.2,3.1,2.1.9.9,1.5,2,2,3.2.4,1.1.7,2.2.9,3.4h-20.4Z"/><path class="cls-1" d="M303.8,18c-1.2-1.7-2.7-3-4.5-3.9-2.2-1.2-4.8-1.8-7.7-1.8s-5.5.5-7.9,1.6c-2.4,1.1-4.5,2.6-6.2,4.5-1.7,1.9-3.1,4.3-4.1,7-1,2.7-1.5,5.7-1.5,9s.5,6.3,1.5,9c1,2.7,2.3,5.1,4,7,1.7,1.9,3.8,3.4,6.2,4.5,2.4,1,5,1.6,7.8,1.6s2.8-.1,4.1-.4c1.3-.3,2.5-.7,3.6-1.3,1.1-.6,2.2-1.3,3.1-2.2.5-.5,1-1.1,1.5-1.7v5h9.5V0h-9.5v18ZM300.9,24c.9,1.2,1.7,2.6,2.2,4.3.5,1.7.7,3.8.7,6s-.3,4-.7,5.8c-.5,1.7-1.2,3.2-2.1,4.4-.9,1.2-2.1,2.1-3.4,2.7-1.4.6-3,1-4.7,1s-3.3-.3-4.6-1c-1.3-.7-2.5-1.6-3.4-2.8-.9-1.2-1.7-2.7-2.2-4.3-.5-1.7-.7-3.6-.7-5.7s.3-4,.7-5.7c.5-1.7,1.2-3.2,2.2-4.4.9-1.2,2.1-2.1,3.5-2.8,1.4-.7,2.9-1,4.7-1s3.4.3,4.7.9c1.3.6,2.5,1.5,3.4,2.6Z"/><rect class="cls-1" x="319.4" y="12.3" width="9.4" height="44.1"/><path class="cls-1" d="M366,17.2c-1.6-1.6-3.5-2.8-5.8-3.6-2.3-.8-5-1.3-8-1.3-4.9,0-8.8,1-11.8,3-3,2-5.1,5-6.3,9l-.2.7h9.9v-.3c.7-1.5,1.7-2.6,2.9-3.3,1.3-.8,3.1-1.1,5.5-1.1s2.8.2,3.9.6c1.1.4,2,1,2.8,1.8.8.8,1.4,1.8,1.8,2.9.4,1.2.6,2.5.6,4v.6h-11.1c-5.8,0-10.1,1.1-13,3.2-2.9,2.2-4.3,5.3-4.3,9.3s.4,4.1,1.1,5.8c.8,1.7,1.8,3.1,3.2,4.3,1.4,1.2,3.1,2.1,5,2.7,1.9.6,4.1.9,6.5.9,3.4,0,6.2-.5,8.4-1.6,1.7-.8,3.1-2,4.3-3.5v4.4h9.4v-25.3c0-2.8-.4-5.3-1.2-7.5-.8-2.2-2-4.1-3.6-5.7ZM361.3,37c0,1.9-.2,3.6-.6,5-.4,1.5-1.1,2.8-1.9,3.7-.9,1-2,1.7-3.3,2.2-1.4.5-3,.7-5,.7-2.8,0-4.9-.5-6.1-1.6-1.2-1.1-1.8-2.5-1.8-4.5s.6-3.3,1.9-4.2c1.3-.9,3.4-1.3,6.3-1.3h10.7Z"/><polygon class="cls-1" points="395.6 0 392.6 0 392.6 56.4 425 56.4 425 53.6 395.6 53.6 395.6 0"/><path class="cls-1" d="M456.5,17c-1.5-1.5-3.3-2.7-5.4-3.5-2.1-.8-4.5-1.2-7.2-1.2-4.2,0-7.8.8-10.7,2.3-2.9,1.6-4.9,4-6,7.1l-.2.7h3.3v-.3c.9-2.3,2.5-4,4.8-5.2,2.3-1.2,5.3-1.8,8.9-1.8s4.2.3,5.9,1c1.7.7,3.2,1.6,4.4,2.9,1.2,1.2,2.1,2.8,2.8,4.6.6,1.9,1,4,1,6.4v1.6h-16.3c-5.2,0-9.2,1-11.9,2.9-2.8,2-4.1,5-4.1,9s.4,3.7,1.1,5.3c.7,1.6,1.8,2.9,3.1,4.1,1.3,1.1,3,2,4.9,2.6,1.9.6,4.1.9,6.5.9,4.6,0,8.4-.9,11.4-2.7,2.3-1.4,4.1-3.4,5.4-5.9v7.8h3v-25.9c0-2.7-.4-5.1-1.1-7.3-.8-2.1-1.9-4-3.3-5.5ZM441.2,53.5c-4.2,0-7.4-.9-9.5-2.7-2.1-1.8-3.1-4.2-3.1-7.2s1-5.3,3.2-6.7c2.2-1.5,5.5-2.3,9.8-2.3h16.3c0,3.1-.4,5.8-1.1,8.1-.7,2.4-1.8,4.5-3.1,6-1.4,1.6-3.1,2.8-5.2,3.6-2.1.8-4.6,1.2-7.4,1.2Z"/><path class="cls-1" d="M501.3,18.5c-1.8-1.9-3.9-3.4-6.2-4.5-2.4-1.1-5-1.6-7.7-1.6-4,0-7.5.9-10.5,2.8-2.4,1.5-4.3,3.6-5.8,6.4V0h-3v55.7h3v-8.9c.6,1.1,1.2,2.1,1.9,3,1.1,1.5,2.5,2.7,3.9,3.7,1.5,1,3.1,1.7,4.8,2.2,1.7.5,3.6.7,5.6.7s5.4-.5,7.7-1.6c2.4-1.1,4.5-2.6,6.2-4.5,1.8-1.9,3.2-4.3,4.2-7,1-2.7,1.5-5.7,1.5-8.9s-.5-6.3-1.5-8.9c-1-2.7-2.4-5-4.2-7ZM503.8,34.4c0,2.7-.4,5.3-1.2,7.6-.8,2.3-1.9,4.4-3.3,6.1-1.4,1.7-3.2,3-5.2,4-2,1-4.3,1.4-6.8,1.4s-4.8-.5-6.8-1.4c-2-.9-3.7-2.3-5.1-4-1.4-1.7-2.5-3.7-3.2-6.1-.8-2.3-1.1-4.9-1.1-7.7s.4-6,1.2-8.4c.8-2.4,1.9-4.4,3.3-6,1.4-1.6,3.1-2.8,5.1-3.6,2-.8,4.3-1.2,6.7-1.2s4.7.5,6.7,1.4c2,1,3.8,2.3,5.2,4,1.4,1.7,2.6,3.8,3.4,6.1.8,2.3,1.2,4.9,1.2,7.6Z"/><path class="cls-1" d="M542.2,38.7c-.7-1.3-1.6-2.4-2.9-3.3-1.2-.9-2.8-1.5-4.6-2-1.8-.5-3.8-.8-6.1-1l-4.7-.4c-1.9-.2-3.6-.4-5.1-.7-1.4-.3-2.7-.7-3.7-1.2-1-.5-1.7-1.2-2.2-2-.5-.8-.8-1.9-.8-3.2s.3-2.7.9-3.9c.6-1.2,1.5-2.2,2.6-3,1.2-.8,2.6-1.5,4.3-2,1.7-.5,3.7-.7,5.8-.7,3.5,0,6.4.6,8.6,1.7,2.1,1.1,3.6,2.9,4.3,5.2v.3h3.2l-.2-.6c-.9-3.2-2.8-5.6-5.6-7.2-2.7-1.6-6.2-2.3-10.3-2.3s-4.9.3-6.9.9c-2,.6-3.8,1.5-5.2,2.5-1.4,1.1-2.6,2.4-3.3,3.9-.8,1.5-1.2,3.2-1.2,5s.3,3.2,1,4.4c.7,1.2,1.6,2.2,2.8,3,1.2.8,2.7,1.4,4.4,1.8,1.7.4,3.6.7,5.7.9l4.7.4c2,.2,3.9.4,5.4.8,1.6.4,2.9.9,3.9,1.5,1,.6,1.8,1.4,2.3,2.3.5.9.8,2.1.8,3.5,0,3.3-1.2,5.7-3.8,7.5-2.6,1.8-6.4,2.7-11.4,2.7s-6.9-.6-9.3-1.9c-2.3-1.2-3.8-3.1-4.4-5.6v-.4h-3.4v.6c1,3.4,2.9,5.9,5.8,7.6,2.9,1.7,6.7,2.5,11.2,2.5s5.4-.3,7.6-.9c2.2-.6,4.2-1.5,5.7-2.6,1.6-1.1,2.8-2.5,3.6-4.2.8-1.6,1.2-3.5,1.2-5.4s-.3-3.3-1-4.6Z"/><rect class="cls-1" x="319.4" width="9.4" height="8.8"/></g></svg>