<?xml version="1.0" encoding="UTF-8"?><svg id="Layer_2" xmlns="http://www.w3.org/2000/svg" viewBox="0 0 542.2 55.4"><defs><style>.cls-1{fill:#191919;}</style></defs><g id="_레이어_1"><path class="cls-1" d="M14.6,53.4c-3.1-1.3-5.7-3.2-7.9-5.6s-3.8-5.3-4.9-8.8c-1.1-3.4-1.7-7.2-1.7-11.4s.6-8.1,1.7-11.6c1.1-3.4,2.8-6.3,4.9-8.7,2.2-2.4,4.8-4.2,7.9-5.5C17.7.6,21.2,0,25.2,0s7.7.7,10.8,2c3.1,1.3,5.8,3.2,7.9,5.6s3.7,5.3,4.8,8.7c1.1,3.4,1.6,7.2,1.6,11.4s-.6,7.9-1.7,11.4-2.8,6.3-4.9,8.8c-2.2,2.4-4.8,4.3-7.9,5.6s-6.6,2-10.6,2-7.5-.7-10.6-2ZM9.8,36.5c.8,2.5,1.9,4.7,3.4,6.3,1.5,1.7,3.2,2.9,5.3,3.8,2,.8,4.3,1.3,6.7,1.3s4.7-.4,6.7-1.3,3.8-2.1,5.2-3.8c1.5-1.7,2.6-3.8,3.4-6.3.8-2.5,1.2-5.5,1.2-8.9s-.4-6.3-1.2-8.9c-.8-2.5-2-4.6-3.4-6.3-1.5-1.7-3.2-2.9-5.2-3.8-2-.8-4.3-1.3-6.7-1.3s-4.7.4-6.7,1.3c-2,.8-3.8,2.1-5.2,3.8-1.5,1.7-2.6,3.8-3.4,6.3-.8,2.5-1.2,5.5-1.2,8.9s.4,6.3,1.2,8.9Z"/><path class="cls-1" d="M58.8,12.3l12.1,32.6,12.2-32.6h8.6l-17,43.1h-7.7L49.9,12.3h8.9Z"/><path class="cls-1" d="M101.6,53.8c-2.5-1.1-4.7-2.5-6.5-4.4-1.8-1.9-3.2-4.2-4.1-6.8-1-2.7-1.4-5.6-1.4-8.9s.5-6,1.5-8.6,2.4-4.9,4.1-6.7c1.8-1.9,3.9-3.4,6.3-4.4,2.4-1.1,5.1-1.6,8-1.6s5.9.5,8.4,1.6,4.6,2.6,6.3,4.4c1.7,1.9,3.1,4.1,4,6.6.9,2.6,1.4,5.3,1.4,8.3v2.4h-31.1c0,1.9.3,3.6.8,5.2.5,1.6,1.3,2.9,2.2,4,1,1.1,2.2,2,3.6,2.6,1.4.6,3.1.9,5.1.9s4.4-.4,6-1.3c1.6-.9,2.9-2.2,3.8-3.9h9.2c-1.7,3.9-4.1,6.9-7.3,9-3.2,2.1-7.1,3.2-11.7,3.2s-6-.5-8.5-1.6ZM120.2,29.8c-.1-1.5-.4-2.9-.9-4.1-.5-1.3-1.2-2.4-2.1-3.3-.9-.9-2-1.7-3.3-2.2-1.3-.5-2.8-.8-4.5-.8s-3,.3-4.2.8c-1.2.5-2.3,1.2-3.2,2.2-.9.9-1.6,2-2.2,3.3-.6,1.3-.9,2.7-1.1,4.2h21.5Z"/><path class="cls-1" d="M134,13h8.5v6.8c.6-1.3,1.4-2.3,2.4-3.3.9-.9,1.9-1.7,3.1-2.3,1.1-.6,2.3-1.1,3.6-1.4s2.6-.5,4-.5c2.4,0,4.6.4,6.6,1.1,1.9.8,3.6,1.9,5,3.5,1.4,1.6,2.4,3.6,3.2,6s1.1,5.3,1.1,8.7v23.8h-8.4v-23.6c0-2.2-.2-4-.5-5.5-.3-1.5-.9-2.8-1.6-3.7-.7-1-1.7-1.7-2.8-2.1-1.1-.4-2.5-.7-4.2-.7-3.6,0-6.4,1.2-8.3,3.5s-2.9,5.8-2.9,10.5v21.6h-8.5V13Z"/><path class="cls-1" d="M177.5,55.4V0h8.2l15.7,19.4L217.1,0h8.2v55.4h-8.6V13.1l-15.4,19-15.3-19v42.3h-8.6Z"/><path class="cls-1" d="M241.8,53.8c-2.5-1.1-4.7-2.5-6.5-4.4-1.8-1.9-3.2-4.2-4.1-6.8-1-2.7-1.4-5.6-1.4-8.9s.5-6,1.5-8.6,2.4-4.9,4.1-6.7c1.8-1.9,3.9-3.4,6.3-4.4,2.4-1.1,5.1-1.6,8-1.6s5.9.5,8.4,1.6,4.6,2.6,6.3,4.4c1.7,1.9,3.1,4.1,4,6.6.9,2.6,1.4,5.3,1.4,8.3v2.4h-31.1c0,1.9.3,3.6.8,5.2.5,1.6,1.3,2.9,2.2,4,1,1.1,2.2,2,3.6,2.6,1.4.6,3.1.9,5.1.9s4.4-.4,6-1.3c1.6-.9,2.9-2.2,3.8-3.9h9.2c-1.7,3.9-4.1,6.9-7.3,9-3.2,2.1-7.1,3.2-11.7,3.2s-6-.5-8.5-1.6ZM260.4,29.8c-.1-1.5-.4-2.9-.9-4.1-.5-1.3-1.2-2.4-2.1-3.3-.9-.9-2-1.7-3.3-2.2-1.3-.5-2.8-.8-4.5-.8s-3,.3-4.2.8c-1.2.5-2.3,1.2-3.2,2.2-.9.9-1.6,2-2.2,3.3-.6,1.3-.9,2.7-1.1,4.2h21.5Z"/><path class="cls-1" d="M283.3,53.9c-2.3-1-4.3-2.5-6-4.3-1.7-1.9-3-4.1-3.9-6.8-1-2.7-1.4-5.6-1.4-8.9s.5-6.2,1.4-8.9c1-2.7,2.3-4.9,4-6.8,1.7-1.9,3.7-3.3,6-4.3,2.3-1,4.9-1.5,7.7-1.5s5.4.6,7.5,1.7c2.1,1.1,3.9,2.8,5.2,5.1V0h8.5v54.7h-8.5v-6.2c-.7,1.2-1.4,2.2-2.3,3.1-.9.9-1.9,1.6-3,2.2-1.1.6-2.3,1-3.5,1.3-1.2.3-2.6.4-4,.4-2.8,0-5.3-.5-7.6-1.5ZM287.3,20.5c-1.4.7-2.6,1.7-3.6,2.9-1,1.3-1.7,2.8-2.3,4.5-.5,1.8-.8,3.7-.8,5.9s.3,4.1.8,5.9c.5,1.8,1.3,3.3,2.3,4.5,1,1.3,2.2,2.2,3.6,2.9,1.4.7,3,1,4.9,1s3.5-.3,5-1c1.4-.7,2.6-1.6,3.6-2.9,1-1.2,1.7-2.8,2.2-4.5s.8-3.7.8-5.9-.3-4.4-.8-6.2-1.3-3.3-2.3-4.5-2.2-2.1-3.6-2.8-3.1-.9-4.9-.9-3.5.3-4.9,1Z"/><path class="cls-1" d="M319.4,55.4V12.3h8.4v43.1h-8.4Z"/><path class="cls-1" d="M337,33.2c2.8-2.1,7-3.1,12.7-3.1h11.6v-1.1c0-1.6-.2-3-.7-4.2-.4-1.2-1.1-2.2-1.9-3.1-.8-.8-1.8-1.5-3-1.9-1.2-.4-2.5-.6-4.1-.6-2.4,0-4.3.4-5.7,1.2s-2.4,2-3,3.6h-8.9c1.2-3.9,3.3-6.8,6.2-8.8,2.9-1.9,6.7-2.9,11.5-2.9s5.6.4,7.8,1.2c2.2.8,4.1,2,5.6,3.5s2.7,3.4,3.5,5.5c.8,2.2,1.2,4.6,1.2,7.3v24.8h-8.4v-5.5c-1.2,2.1-2.9,3.7-5,4.7-2.1,1-4.8,1.5-8.1,1.5s-4.4-.3-6.3-.9c-1.9-.6-3.5-1.5-4.8-2.6-1.3-1.1-2.4-2.5-3.1-4.1-.7-1.6-1.1-3.5-1.1-5.6,0-3.9,1.4-6.8,4.1-8.9ZM350.1,36c-3,0-5.2.5-6.6,1.4-1.4,1-2.1,2.5-2.1,4.6s.7,3.7,2,4.9c1.3,1.1,3.5,1.7,6.5,1.7s3.7-.3,5.1-.8c1.4-.5,2.6-1.3,3.5-2.3s1.6-2.4,2-3.9c.4-1.6.7-3.5.7-5.6h-11.2Z"/><path class="cls-1" d="M392.6,55.4V0h2v53.6h29.5v1.8h-31.5Z"/><path class="cls-1" d="M429.6,34.5c2.6-1.9,6.5-2.9,11.6-2.9h16.8v-2.1c0-2.5-.3-4.6-1-6.6s-1.6-3.5-2.9-4.8c-1.2-1.3-2.8-2.3-4.5-3-1.8-.7-3.8-1-6.1-1-3.6,0-6.7.6-9.1,1.8-2.4,1.2-4,3-4.9,5.5h-2.2c1-3.1,3-5.4,5.7-6.9,2.8-1.5,6.3-2.3,10.5-2.3s4.9.4,7,1.2c2.1.8,3.8,1.9,5.2,3.4,1.4,1.5,2.5,3.2,3.2,5.3.7,2.1,1.1,4.5,1.1,7.1v25.4h-2v-9.8c-1.2,3.5-3.3,6.1-6.2,7.9-2.9,1.8-6.6,2.6-11.1,2.6s-4.5-.3-6.3-.9c-1.9-.6-3.4-1.4-4.7-2.5-1.3-1.1-2.3-2.4-3-3.9-.7-1.5-1-3.2-1-5.1,0-3.8,1.3-6.6,3.9-8.5ZM441.2,33.6c-4.5,0-7.9.8-10.1,2.4-2.3,1.6-3.4,4-3.4,7.2s1.1,5.7,3.3,7.6c2.2,1.9,5.5,2.8,9.8,2.8s5.4-.4,7.5-1.2c2.2-.8,4-2.1,5.4-3.7,1.4-1.7,2.5-3.7,3.2-6.2.7-2.5,1.1-5.4,1.1-8.8h-16.8Z"/><path class="cls-1" d="M494.3,13.9c2.3,1.1,4.3,2.5,6.1,4.4,1.7,1.9,3.1,4.2,4.1,6.8,1,2.7,1.5,5.6,1.5,8.8s-.5,6.1-1.5,8.8c-1,2.6-2.3,4.9-4.1,6.8-1.7,1.9-3.8,3.4-6.1,4.4-2.3,1-4.8,1.6-7.5,1.6s-3.8-.2-5.5-.7-3.3-1.2-4.7-2.1-2.7-2.1-3.8-3.6c-1.1-1.4-2.1-3.1-2.8-5v10.7h-2V0h2v23.2c1.6-3.7,3.8-6.4,6.6-8.2,2.9-1.8,6.3-2.7,10.2-2.7s5.2.5,7.5,1.6ZM479.9,15.4c-2.1.8-3.8,2.1-5.3,3.7-1.5,1.7-2.6,3.7-3.4,6.2-.8,2.4-1.2,5.3-1.2,8.6s.4,5.4,1.2,7.8c.8,2.4,1.9,4.5,3.3,6.2,1.4,1.8,3.2,3.1,5.3,4.1s4.4,1.5,7,1.5,4.9-.5,7-1.5c2.1-1,3.9-2.4,5.4-4.1,1.5-1.8,2.6-3.8,3.4-6.2.8-2.4,1.2-5,1.2-7.8s-.4-5.4-1.2-7.8c-.8-2.4-2-4.5-3.5-6.3-1.5-1.8-3.3-3.1-5.4-4.1-2.1-1-4.4-1.5-7-1.5s-4.9.4-6.9,1.3Z"/><path class="cls-1" d="M513.5,53c-2.8-1.6-4.6-4.1-5.4-7.3h2.3c.7,2.7,2.3,4.6,4.7,5.9,2.4,1.3,5.6,1.9,9.5,1.9s9.1-.9,11.7-2.8c2.7-1.9,4-4.5,4-7.9s-.3-2.7-.8-3.8c-.6-1-1.4-1.9-2.5-2.5-1.1-.7-2.5-1.2-4.1-1.5-1.6-.4-3.4-.6-5.5-.8l-4.7-.4c-2.1-.2-3.9-.5-5.6-.9-1.7-.4-3.1-1-4.2-1.7s-2-1.7-2.7-2.8c-.6-1.1-.9-2.5-.9-4.2s.4-3.4,1.1-4.8c.7-1.5,1.8-2.7,3.2-3.8,1.4-1.1,3.1-1.9,5.1-2.5s4.2-.9,6.8-.9c4.1,0,7.4.8,10.1,2.3,2.7,1.5,4.4,3.8,5.3,6.9h-2.1c-.8-2.4-2.3-4.3-4.6-5.5-2.3-1.2-5.2-1.8-8.8-1.8s-4.2.2-5.9.7c-1.7.5-3.2,1.2-4.4,2.1-1.2.9-2.1,1.9-2.8,3.2-.6,1.2-1,2.6-1,4.1s.3,2.6.8,3.5c.6.9,1.4,1.7,2.4,2.2,1,.6,2.3,1,3.8,1.3,1.5.3,3.2.5,5.1.7l4.7.4c2.3.2,4.2.5,6,1s3.2,1.1,4.4,2c1.2.8,2.1,1.9,2.8,3.1.6,1.2.9,2.7.9,4.4s-.4,3.6-1.2,5.2-1.9,2.9-3.5,4-3.4,1.9-5.6,2.5-4.7.9-7.5.9c-4.5,0-8.1-.8-11-2.4Z"/><rect class="cls-1" x="319.4" width="8.4" height="7.8"/></g></svg>