<?xml version="1.0" encoding="UTF-8"?>
<svg id="Layer_2" data-name="Layer 2" xmlns="http://www.w3.org/2000/svg" viewBox="0 0 1776.9 280">
  <defs>
    <style>
      .cls-1 {
        fill: #14274e;
      }

      .cls-2 {
        fill: #394867;
      }

      .cls-3 {
        fill: #0a1122;
      }

      .cls-4 {
        fill: #9ba4b4;
      }
    </style>
  </defs>
  <g id="Layer_1-2" data-name="Layer 1">
    <g>
      <g>
        <g>
          <polygon class="cls-2" points="127.87 212.86 113.59 221.26 186.69 263.88 186.69 247.5 127.87 212.86"/>
          <polygon class="cls-2" points="13.57 170.44 13.57 247.7 27.52 239.5 27.52 178.63 13.57 170.44"/>
          <path class="cls-2" d="M193.29,157.59V54.76L100.02,0h0v196.45l13.57-7.97v-61.31l166.41,97.85v-16.38l-86.71-51.05ZM179.73,149.59l-66.14-38.83V24.35l66.14,38.83v86.41Z"/>
        </g>
        <g>
          <polygon class="cls-1" points="13.57 170.44 27.52 178.63 86.45 143.53 86.45 127.17 13.57 170.44"/>
          <polygon class="cls-1" points="113.59 24.35 113.59 40.76 166.16 71.64 179.73 63.18 113.59 24.35"/>
          <path class="cls-1" d="M113.59,127.17v16.41l52.57,30.82L0,272.06l13.54,7.94,86.84-51.02,86.31,50.82,93.31-54.78L113.59,127.17ZM113.59,221.26l66.14-38.9,72.79,42.88-65.82,38.64-73.11-42.62Z"/>
        </g>
        <g>
          <polygon class="cls-4" points="166.16 71.64 166.16 141.63 179.73 149.59 179.73 63.18 166.16 71.64"/>
          <path class="cls-4" d="M151.86,166.01l-51.84,30.44V0h0c-8.44,5.24-13.57,14.46-13.57,24.39v86.37L.23,162.02c0,29.92,0,79.92-.23,110.03l166.16-97.66-14.3-8.38ZM86.45,204.41L13.57,247.7c0-12.52,0-65.42,0-77.26l72.88-43.27v77.24Z"/>
          <polygon class="cls-4" points="238.56 217.05 186.69 247.5 186.69 263.88 252.51 225.24 238.56 217.05"/>
        </g>
      </g>
      <g>
        <path class="cls-3" d="M1369.41,225V76.97h14.29v135.21h74.12v12.82h-88.41Z"/>
        <path class="cls-3" d="M1471.38,167.2c7.12-5.37,17.92-8.05,32.39-8.05h37.28v-4.49c0-5.26-.74-9.92-2.2-13.97-1.47-4.05-3.54-7.45-6.23-10.19s-5.98-4.82-9.88-6.25c-3.9-1.42-8.33-2.14-13.27-2.14-8.09,0-14.57,1.3-19.44,3.89-4.87,2.59-8.31,6.56-10.31,11.89h-15.36c3.08-9.42,8.34-16.45,15.79-21.09,7.45-4.64,17.22-6.96,29.33-6.96,7.45,0,14.04,1.06,19.77,3.18,5.73,2.12,10.54,5.19,14.45,9.2,3.9,4.02,6.86,8.88,8.86,14.57,2,5.7,3.01,12.09,3.01,19.17v69.03h-14.5v-20.93c-3.37,6.94-8.25,12.16-14.66,15.67-6.41,3.51-14.84,5.26-25.3,5.26-6.23,0-11.85-.79-16.87-2.36-5.01-1.57-9.26-3.83-12.73-6.79-3.47-2.96-6.14-6.56-8-10.79-1.86-4.24-2.79-9.06-2.79-14.46,0-10.23,3.56-18.02,10.69-23.39ZM1504.41,170.32c-9.96,0-17.29,1.63-22.02,4.88-4.73,3.25-7.09,8.38-7.09,15.39s2.26,12.36,6.77,16.27c4.51,3.91,11.71,5.86,21.59,5.86,6.45,0,12.03-.86,16.76-2.58,4.73-1.71,8.61-4.31,11.66-7.78,3.04-3.47,5.3-7.89,6.77-13.26,1.47-5.37,2.2-11.63,2.2-18.79h-36.63Z"/>
        <path class="cls-3" d="M1647.46,113.95c6.23,2.74,11.62,6.61,16.17,11.61,4.55,5,8.09,11.05,10.63,18.13,2.54,7.09,3.81,15.01,3.81,23.78s-1.29,16.45-3.87,23.5c-2.58,7.05-6.16,13.11-10.74,18.19-4.58,5.08-10.01,8.98-16.27,11.72-6.27,2.74-13.09,4.11-20.46,4.11-4.37,0-8.49-.49-12.35-1.48s-7.43-2.47-10.69-4.44c-3.26-1.97-6.2-4.44-8.81-7.4-2.62-2.96-4.89-6.41-6.82-10.35v23.67h-14.5V76.97h14.5v55.44c3.94-7.6,9.18-13.26,15.74-16.98,6.55-3.73,14.34-5.59,23.36-5.59,7.3,0,14.07,1.37,20.3,4.11ZM1609.86,125.07c-4.66,1.97-8.61,4.88-11.87,8.71-3.26,3.83-5.73,8.57-7.41,14.19-1.68,5.63-2.52,12.13-2.52,19.5,0,6.57.82,12.64,2.47,18.19,1.65,5.55,4.04,10.34,7.2,14.35,3.15,4.02,7.04,7.14,11.66,9.37,4.62,2.23,9.9,3.34,15.84,3.34s11.15-1.13,15.84-3.4c4.69-2.26,8.68-5.41,11.98-9.42,3.29-4.02,5.82-8.78,7.57-14.3,1.75-5.51,2.63-11.56,2.63-18.13s-.9-12.64-2.69-18.19c-1.79-5.55-4.32-10.33-7.57-14.35-3.26-4.02-7.2-7.16-11.82-9.42-4.62-2.26-9.79-3.4-15.52-3.4s-11.14.99-15.79,2.96Z"/>
        <path class="cls-3" d="M1698.59,217.77c-7.95-4.82-13.25-12.01-15.9-21.58h14.61c1.79,5.55,5.39,9.7,10.8,12.44,5.41,2.74,12.37,4.11,20.89,4.11,10.81,0,19.14-1.95,24.98-5.86,5.84-3.91,8.75-9.37,8.75-16.38,0-2.63-.5-4.91-1.5-6.85-1-1.93-2.47-3.56-4.4-4.88-1.93-1.31-4.33-2.36-7.2-3.12-2.87-.77-6.16-1.33-9.88-1.7l-18.69-1.97c-5.73-.58-10.81-1.57-15.25-2.96-4.44-1.39-8.16-3.21-11.17-5.48-3.01-2.26-5.26-5.02-6.77-8.27-1.5-3.25-2.26-7.07-2.26-11.45,0-5.7,1.22-10.66,3.65-14.9,2.43-4.24,5.71-7.78,9.83-10.63,4.12-2.85,8.83-4.97,14.13-6.36,5.3-1.39,10.85-2.08,16.65-2.08,11.67,0,21.23,2.27,28.68,6.79,7.45,4.53,12.5,11.32,15.15,20.38h-14.39c-1.79-5.04-5.19-8.8-10.21-11.29-5.01-2.48-11.42-3.72-19.23-3.72-3.72,0-7.38.37-10.96,1.1-3.58.73-6.79,1.9-9.61,3.51-2.83,1.61-5.1,3.69-6.82,6.25-1.72,2.56-2.58,5.63-2.58,9.2,0,2.7.48,5,1.45,6.9.97,1.9,2.38,3.49,4.24,4.77,1.86,1.28,4.15,2.28,6.88,3.01,2.72.73,5.84,1.28,9.35,1.64l19.77,2.08c5.87.58,10.99,1.59,15.36,3.01,4.37,1.42,8.04,3.33,11.01,5.7,2.97,2.37,5.21,5.24,6.71,8.6,1.5,3.36,2.26,7.23,2.26,11.62,0,6.14-1.33,11.43-3.97,15.89-2.65,4.46-6.2,8.15-10.63,11.07-4.44,2.92-9.56,5.09-15.36,6.52-5.8,1.42-11.78,2.14-17.94,2.14-12.32,0-22.45-2.41-30.4-7.23Z"/>
        <g>
          <path class="cls-3" d="M360.89,219.69c-8.31-3.54-15.34-8.55-21.11-15.01-5.77-6.46-10.17-14.26-13.21-23.39-3.04-9.13-4.57-19.25-4.57-30.35s1.52-21.77,4.57-30.9c3.04-9.13,7.45-16.89,13.21-23.28,5.76-6.39,12.82-11.29,21.16-14.68,8.34-3.4,17.78-5.1,28.31-5.1s20.52,1.77,28.9,5.31c8.38,3.54,15.4,8.53,21.05,14.96,5.66,6.43,9.95,14.19,12.89,23.28,2.94,9.09,4.4,19.23,4.4,30.41s-1.52,21.22-4.57,30.35c-3.04,9.13-7.45,16.93-13.21,23.39-5.77,6.46-12.8,11.47-21.11,15.01-8.31,3.54-17.76,5.31-28.36,5.31s-20.05-1.77-28.36-5.31ZM348.1,174.6c2.15,6.79,5.17,12.44,9.08,16.93,3.9,4.49,8.59,7.85,14.07,10.08,5.48,2.23,11.48,3.34,17.99,3.34s12.58-1.11,17.99-3.34c5.41-2.23,10.08-5.59,14.02-10.08,3.94-4.49,6.98-10.13,9.13-16.93,2.15-6.79,3.22-14.68,3.22-23.67s-1.09-16.96-3.28-23.72c-2.19-6.76-5.25-12.38-9.18-16.87-3.94-4.49-8.61-7.85-14.02-10.08-5.41-2.23-11.37-3.34-17.89-3.34s-12.48,1.11-17.89,3.34c-5.41,2.23-10.08,5.59-14.02,10.08-3.94,4.49-7,10.12-9.18,16.87-2.19,6.76-3.28,14.67-3.28,23.72s1.07,16.87,3.22,23.67Z"/>
          <path class="cls-3" d="M479.12,109.84l32.33,87,32.55-87h23.1l-45.55,115.16h-20.52l-45.65-115.16h23.74Z"/>
          <path class="cls-3" d="M591.77,220.78c-6.77-2.81-12.55-6.76-17.35-11.83-4.8-5.08-8.49-11.18-11.06-18.3s-3.87-15.03-3.87-23.72,1.32-15.98,3.97-22.96c2.65-6.98,6.34-12.98,11.06-18.02s10.33-8.99,16.81-11.83c6.48-2.85,13.59-4.27,21.32-4.27,8.31,0,15.75,1.44,22.34,4.33,6.59,2.89,12.21,6.83,16.87,11.83,4.65,5,8.2,10.92,10.63,17.75,2.43,6.83,3.65,14.23,3.65,22.19v6.46h-83.14c.14,5.11.89,9.75,2.26,13.92,1.36,4.16,3.35,7.74,5.96,10.74,2.61,3,5.85,5.3,9.72,6.9,3.87,1.61,8.38,2.41,13.54,2.41,6.37,0,11.71-1.17,16.01-3.51,4.3-2.34,7.66-5.81,10.1-10.41h24.6c-4.51,10.37-11.03,18.39-19.55,24.05-8.52,5.66-18.91,8.49-31.15,8.49-8.38,0-15.95-1.41-22.72-4.22ZM641.56,156.52c-.29-3.95-1.13-7.62-2.52-11.01-1.4-3.4-3.29-6.35-5.69-8.88-2.4-2.52-5.32-4.51-8.75-5.97-3.44-1.46-7.41-2.19-11.92-2.19-4.15,0-7.9.7-11.23,2.08-3.33,1.39-6.2,3.31-8.59,5.75-2.4,2.45-4.35,5.41-5.85,8.88-1.5,3.47-2.47,7.25-2.9,11.34h57.47Z"/>
          <path class="cls-3" d="M677.52,109.88h22.77v19.9c1.72-3.36,3.81-6.26,6.28-8.71,2.47-2.45,5.19-4.51,8.16-6.19,2.97-1.68,6.16-2.94,9.56-3.78,3.4-.84,6.93-1.26,10.58-1.26,6.52,0,12.37,1,17.56,3.01,5.19,2.01,9.63,5.11,13.32,9.31,3.69,4.2,6.5,9.53,8.43,16,1.93,6.46,2.9,14.19,2.9,23.17v63.66h-22.56v-63c0-5.77-.47-10.68-1.4-14.74-.93-4.05-2.38-7.38-4.35-9.97-1.97-2.59-4.48-4.47-7.52-5.64-3.04-1.17-6.75-1.75-11.12-1.75-9.67,0-17.06,3.11-22.18,9.31-5.12,6.21-7.68,15.56-7.68,28.05v57.75h-22.77v-115.12Z"/>
          <path class="cls-3" d="M794.32,225V76.97h21.38l40.82,62.13,41.04-62.13h21.38v148.03h-22.45v-110.01l-39.96,57.42-39.85-57.42v110.01h-22.34Z"/>
          <path class="cls-3" d="M963.7,220.78c-6.77-2.81-12.55-6.76-17.35-11.83-4.8-5.08-8.49-11.18-11.06-18.3s-3.87-15.03-3.87-23.72,1.32-15.98,3.97-22.96c2.65-6.98,6.34-12.98,11.06-18.02s10.33-8.99,16.81-11.83c6.48-2.85,13.59-4.27,21.32-4.27,8.31,0,15.75,1.44,22.34,4.33,6.59,2.89,12.21,6.83,16.87,11.83,4.65,5,8.2,10.92,10.63,17.75,2.43,6.83,3.65,14.23,3.65,22.19v6.46h-83.14c.14,5.11.89,9.75,2.26,13.92,1.36,4.16,3.35,7.74,5.96,10.74,2.61,3,5.85,5.3,9.72,6.9,3.87,1.61,8.38,2.41,13.54,2.41,6.37,0,11.71-1.17,16.01-3.51,4.3-2.34,7.66-5.81,10.1-10.41h24.6c-4.51,10.37-11.03,18.39-19.55,24.05-8.52,5.66-18.91,8.49-31.15,8.49-8.38,0-15.95-1.41-22.72-4.22ZM1013.49,156.52c-.29-3.95-1.13-7.62-2.52-11.01-1.4-3.4-3.29-6.35-5.69-8.88-2.4-2.52-5.32-4.51-8.75-5.97-3.44-1.46-7.41-2.19-11.92-2.19-4.15,0-7.9.7-11.23,2.08-3.33,1.39-6.2,3.31-8.59,5.75-2.4,2.45-4.35,5.41-5.85,8.88-1.5,3.47-2.47,7.25-2.9,11.34h57.47Z"/>
          <path class="cls-3" d="M1073.82,220.95c-6.23-2.7-11.58-6.56-16.06-11.56-4.48-5-7.99-11.07-10.53-18.19-2.54-7.12-3.81-15.03-3.81-23.72s1.27-16.6,3.81-23.72c2.54-7.12,6.07-13.18,10.58-18.19,4.51-5,9.88-8.88,16.11-11.61s13.07-4.11,20.52-4.11,14.34,1.52,20.03,4.55c5.69,3.03,10.33,7.58,13.91,13.64v-51.06h22.67v148.03h-22.67v-18.41c-1.79,3.14-3.87,5.86-6.23,8.16s-5,4.22-7.9,5.75c-2.9,1.53-6.02,2.67-9.35,3.4-3.33.73-6.89,1.1-10.69,1.1-7.38,0-14.18-1.35-20.41-4.05ZM1084.51,131.81c-3.83,1.86-7.07,4.47-9.72,7.83-2.65,3.36-4.66,7.4-6.02,12.11-1.36,4.71-2.04,9.95-2.04,15.72s.68,10.99,2.04,15.67c1.36,4.68,3.37,8.69,6.02,12.05,2.65,3.36,5.87,5.97,9.67,7.83,3.79,1.86,8.13,2.79,13,2.79s9.43-.91,13.27-2.74c3.83-1.83,7.05-4.4,9.67-7.72,2.61-3.32,4.6-7.36,5.96-12.11,1.36-4.75,2.04-10.01,2.04-15.78,0-6.21-.68-11.71-2.04-16.49-1.36-4.78-3.37-8.8-6.02-12.05-2.65-3.25-5.87-5.71-9.67-7.4-3.8-1.68-8.16-2.52-13.11-2.52s-9.22.93-13.05,2.79Z"/>
          <path class="cls-3" d="M1215.5,165.72c7.38-5.55,18.65-8.33,33.84-8.33h31.04v-2.96c0-4.24-.59-7.98-1.77-11.23-1.18-3.25-2.87-5.99-5.05-8.22-2.19-2.23-4.85-3.91-8-5.04-3.15-1.13-6.77-1.7-10.85-1.7-6.52,0-11.6,1.08-15.25,3.23-3.65,2.16-6.34,5.35-8.06,9.59h-23.85c3.29-10.44,8.77-18.26,16.44-23.45,7.66-5.19,17.9-7.78,30.72-7.78,7.95,0,14.91,1.1,20.89,3.29,5.98,2.19,11.01,5.31,15.09,9.37,4.08,4.05,7.16,8.97,9.24,14.74,2.08,5.77,3.12,12.27,3.12,19.5v66.29h-22.45v-14.68c-3.29,5.63-7.75,9.81-13.37,12.55-5.62,2.74-12.87,4.11-21.75,4.11-6.23,0-11.87-.82-16.92-2.47s-9.36-3.98-12.94-7.01c-3.58-3.03-6.34-6.72-8.27-11.07-1.93-4.34-2.9-9.33-2.9-14.96,0-10.3,3.69-18.22,11.06-23.78ZM1250.52,173.17c-8.02,0-13.88,1.28-17.56,3.83-3.69,2.56-5.53,6.65-5.53,12.27s1.79,9.97,5.37,13.04c3.58,3.07,9.35,4.6,17.29,4.6,5.3,0,9.86-.67,13.7-2.03,3.83-1.35,6.96-3.41,9.4-6.19,2.43-2.78,4.24-6.28,5.42-10.52,1.18-4.24,1.77-9.24,1.77-15.01h-29.86Z"/>
          <g>
            <path class="cls-3" d="M1169.17,225v-115.12h22.56v115.12h-22.56Z"/>
            <rect class="cls-3" x="1169.17" y="76.97" width="22.56" height="20.82"/>
          </g>
        </g>
      </g>
    </g>
  </g>
</svg>