<?xml version="1.0" encoding="UTF-8"?>
<svg id="Layer_2" data-name="Layer 2" xmlns="http://www.w3.org/2000/svg" viewBox="0 0 1000 1000">
  <defs>
    <style>
      .cls-1 {
        fill: #14274e;
      }

      .cls-2 {
        fill: #394867;
      }

      .cls-3 {
        fill: #9ba4b4;
      }
    </style>
  </defs>
  <g id="Layer_1-2" data-name="Layer 1">
    <g>
      <g>
        <polygon class="cls-2" points="456.67 760.22 405.66 790.22 666.76 942.44 666.76 883.93 456.67 760.22"/>
        <polygon class="cls-2" points="48.45 608.71 48.45 884.65 98.29 855.34 98.29 637.97 48.45 608.71"/>
        <path class="cls-2" d="M690.33,562.86V195.59L357.21,0h0v702.27l48.45-28.45v-219.65l594.34,349.46v-58.49l-309.67-182.28ZM641.88,534.34l-236.22-139.04V86.97l236.22,138.68v308.68Z"/>
      </g>
      <g>
        <polygon class="cls-1" points="48.45 608.71 98.29 637.97 308.75 512.61 308.75 454.17 48.45 608.71"/>
        <polygon class="cls-1" points="405.66 86.97 405.66 145.56 593.42 255.84 641.88 225.65 405.66 86.97"/>
        <path class="cls-1" d="M405.66,454.17v58.59l187.76,110.08L0,971.63l48.36,28.37,310.15-182.22,308.26,181.5,333.24-195.65L405.66,454.17ZM405.66,790.22l236.22-138.93,259.95,153.14-235.07,138.01-261.1-152.23Z"/>
      </g>
      <g>
        <polygon class="cls-3" points="593.42 255.84 593.42 505.81 641.88 534.34 641.88 225.65 593.42 255.84"/>
        <path class="cls-3" d="M542.35,593.57l-185.14,108.7V0h0c-30.13,18.7-48.45,51.64-48.45,87.1v308.48L.84,578.65c0,106.86,0,285.44-.84,392.98l593.42-348.78-51.07-29.27ZM308.75,730.9L48.48,884.65c0-44.71-.02-233.63-.02-275.94l260.3-154.54v276.72Z"/>
        <polygon class="cls-3" points="852 775.18 666.76 883.93 666.76 942.44 901.83 804.43 852 775.18"/>
      </g>
    </g>
  </g>
</svg>